<svg width="616" height="706" viewBox="0 0 616 706" fill="none" xmlns="http://www.w3.org/2000/svg">
<rect x="438" width="178" height="129" rx="30" fill="#1C1F1C"/>
<path d="M0.5 70.1739C0.5 53.8815 13.7076 40.6738 30 40.6738H615.5V675.913C615.5 692.205 602.292 705.413 586 705.413H30C13.7076 705.413 0.5 692.205 0.5 675.913V70.1739Z" fill="#75FB9F" stroke="black"/>
<path d="M481.75 30H480.25H478.75H477.25H475.75V28.5H474.25V27V25.5V24V22.5V21V19.5V18H475.75V16.5H477.25H478.75H480.25H481.75H483.25V18H484.75V19.5V21H483.25H481.75V19.5H480.25H478.75H477.25V21V22.5V24V25.5V27H478.75H480.25H481.75V25.5H480.25H478.75V24V22.5H480.25H481.75H483.25H484.75V24V25.5V27V28.5H483.25V30H481.75ZM495.25 30H493.75H492.25H490.75H489.25H487.75H486.25V28.5V27V25.5V24V22.5V21V19.5V18V16.5H487.75H489.25H490.75H492.25H493.75H495.25H496.75V18V19.5H495.25H493.75H492.25H490.75H489.25V21H490.75H492.25H493.75H495.25V22.5V24H493.75H492.25H490.75H489.25V25.5V27H490.75H492.25H493.75H495.25H496.75V28.5V30H495.25ZM507.25 30V28.5H505.75V27H504.25V25.5H502.75V24H501.25V25.5V27V28.5V30H499.75H498.25V28.5V27V25.5V24V22.5V21V19.5V18V16.5H499.75V18H501.25V19.5H502.75V21H504.25V22.5H505.75V21V19.5V18V16.5H507.25H508.75V18V19.5V21V22.5V24V25.5V27V28.5V30H507.25ZM519.25 30H517.75H516.25H514.75H513.25H511.75H510.25V28.5V27V25.5V24V22.5V21V19.5V18V16.5H511.75H513.25H514.75H516.25H517.75H519.25H520.75V18V19.5H519.25H517.75H516.25H514.75H513.25V21H514.75H516.25H517.75H519.25V22.5V24H517.75H516.25H514.75H513.25V25.5V27H514.75H516.25H517.75H519.25H520.75V28.5V30H519.25ZM531.25 30H529.75V28.5H528.25V27H526.75V25.5H525.25V27V28.5V30H523.75H522.25V28.5V27V25.5V24V22.5V21V19.5V18V16.5H523.75H525.25H526.75H528.25H529.75H531.25V18H532.75V19.5V21V22.5V24H531.25V25.5V27H532.75V28.5V30H531.25ZM528.25 22.5H529.75V21V19.5H528.25H526.75H525.25V21V22.5H526.75H528.25ZM543.25 30H541.75V28.5V27V25.5H540.25H538.75H537.25V27V28.5V30H535.75H534.25V28.5V27V25.5V24V22.5V21V19.5H535.75V18H537.25V16.5H538.75H540.25H541.75V18H543.25V19.5H544.75V21V22.5V24V25.5V27V28.5V30H543.25ZM540.25 22.5H541.75V21H540.25V19.5H538.75V21H537.25V22.5H538.75H540.25ZM550.75 30H549.25V28.5V27V25.5V24V22.5V21V19.5H547.75H546.25V18V16.5H547.75H549.25H550.75H552.25H553.75H555.25V18V19.5H553.75H552.25V21V22.5V24V25.5V27V28.5V30H550.75ZM564.25 30H562.75H561.25H559.75H558.25V28.5H556.75V27V25.5V24V22.5V21V19.5V18H558.25V16.5H559.75H561.25H562.75H564.25H565.75V18H567.25V19.5V21V22.5V24V25.5V27V28.5H565.75V30H564.25ZM562.75 27H564.25V25.5V24V22.5V21V19.5H562.75H561.25H559.75V21V22.5V24V25.5V27H561.25H562.75ZM577.75 30H576.25V28.5H574.75V27H573.25V25.5H571.75V27V28.5V30H570.25H568.75V28.5V27V25.5V24V22.5V21V19.5V18V16.5H570.25H571.75H573.25H574.75H576.25H577.75V18H579.25V19.5V21V22.5V24H577.75V25.5V27H579.25V28.5V30H577.75ZM574.75 22.5H576.25V21V19.5H574.75H573.25H571.75V21V22.5H573.25H574.75Z" fill="#75FB9F"/>
</svg>
