<svg width="493" height="483" viewBox="0 0 493 483" fill="none" xmlns="http://www.w3.org/2000/svg">
<path fill-rule="evenodd" clip-rule="evenodd" d="M36.2601 1L1 1L1 36.2601H36.2601L4.20549 36.2601L4.20549 4.20546L36.2601 4.20546L36.2601 1Z" fill="#B6B6B6"/>
<path d="M1 1V0.198634H0.198634V1H1ZM36.2601 1L37.0615 0.999995L37.0615 0.198634H36.2601V1ZM1 36.2601H0.198634V37.0615H1V36.2601ZM4.20549 36.2601H3.40412V37.0615H4.20549L4.20549 36.2601ZM4.20549 4.20546V3.40409H3.40412V4.20546H4.20549ZM36.2601 4.20546V5.00682H37.0615L37.0615 4.20545L36.2601 4.20546ZM1 1.80137L36.2601 1.80137V0.198634L1 0.198634V1.80137ZM1.80137 36.2601L1.80137 1H0.198634L0.198634 36.2601H1.80137ZM36.2601 35.4588H1V37.0615H36.2601V35.4588ZM36.2601 35.4588L4.20549 35.4587L4.20549 37.0615L36.2601 37.0615V35.4588ZM5.00685 36.2601L5.00685 4.20546H3.40412L3.40412 36.2601H5.00685ZM4.20549 5.00682L36.2601 5.00682V3.40409L4.20549 3.40409V5.00682ZM35.4588 1L35.4588 4.20546L37.0615 4.20545L37.0615 0.999995L35.4588 1Z" fill="black"/>
<rect x="4.20551" y="4.20508" width="32.0547" height="32.0547" fill="#C5C6CA" stroke="black" stroke-width="1.60273"/>
<rect x="10.6164" y="18.6299" width="17.6301" height="3.20547" fill="#7C7D81" stroke="black" stroke-width="1.60273"/>
<path d="M36.2601 1L424.11 1V4.20547L36.2601 4.20547V1Z" fill="#B6B6B6"/>
<path d="M36.2601 1V0.198634H35.4588V1H36.2601ZM36.2601 4.20547H35.4588V5.00683H36.2601V4.20547ZM36.2601 1.80137L424.11 1.80137V0.198634L36.2601 0.198634V1.80137ZM424.11 3.4041L36.2601 3.4041V5.00683L424.11 5.00683V3.4041ZM37.0615 4.20547V1H35.4588V4.20547H37.0615Z" fill="black"/>
<rect x="36.2601" y="4.20508" width="387.85" height="32" fill="#0000A8"/>
<rect x="36.2601" y="4.20508" width="387.85" height="32" stroke="black" stroke-width="1.60273"/>
<path d="M206.549 19.1354H211.539V25.6585C210.881 25.8819 210.193 26.0582 209.476 26.1874C208.771 26.3167 207.966 26.3814 207.061 26.3814C205.815 26.3814 204.751 26.1346 203.87 25.6409C203 25.1473 202.336 24.4186 201.877 23.4548C201.431 22.491 201.207 21.3039 201.207 19.8935C201.207 18.5771 201.46 17.4371 201.966 16.4733C202.483 15.5095 203.229 14.7632 204.205 14.2343C205.18 13.7054 206.373 13.4409 207.783 13.4409C208.453 13.4409 209.112 13.5114 209.758 13.6525C210.404 13.7935 210.992 13.9816 211.521 14.2166L210.64 16.3499C210.252 16.1501 209.811 15.9855 209.317 15.8562C208.824 15.7269 208.307 15.6623 207.766 15.6623C206.99 15.6623 206.314 15.8386 205.738 16.1912C205.174 16.5438 204.733 17.0433 204.416 17.6898C204.111 18.3244 203.958 19.0767 203.958 19.9464C203.958 20.7691 204.069 21.4979 204.293 22.1325C204.516 22.7672 204.869 23.2667 205.351 23.6311C205.832 23.9837 206.461 24.16 207.237 24.16C207.496 24.16 207.719 24.1541 207.907 24.1424C208.107 24.1189 208.289 24.0953 208.453 24.0718C208.618 24.0366 208.777 24.0072 208.929 23.9837V21.3568H206.549V19.1354ZM218.267 16.3851C219.56 16.3851 220.547 16.6672 221.229 17.2314C221.922 17.7838 222.269 18.6359 222.269 19.7877V26.2051H220.435L219.924 24.9005H219.854C219.583 25.2413 219.301 25.5234 219.007 25.7467C218.725 25.97 218.396 26.1287 218.02 26.2227C217.656 26.3285 217.203 26.3814 216.663 26.3814C216.098 26.3814 215.587 26.2756 215.129 26.064C214.682 25.8407 214.33 25.5058 214.071 25.0591C213.812 24.6007 213.683 24.0248 213.683 23.3314C213.683 22.3088 214.042 21.5566 214.759 21.0747C215.475 20.5811 216.551 20.3108 217.985 20.2637L219.66 20.2109V19.7877C219.66 19.2823 219.525 18.9121 219.254 18.677C218.996 18.442 218.631 18.3244 218.161 18.3244C217.691 18.3244 217.233 18.395 216.786 18.536C216.339 18.6653 215.893 18.8298 215.446 19.0296L214.582 17.249C215.099 16.9787 215.669 16.7671 216.292 16.6143C216.927 16.4615 217.585 16.3851 218.267 16.3851ZM218.637 21.7799C217.791 21.8034 217.203 21.9562 216.874 22.2383C216.545 22.5204 216.38 22.8906 216.38 23.349C216.38 23.7486 216.498 24.0366 216.733 24.2129C216.968 24.3774 217.274 24.4597 217.65 24.4597C218.214 24.4597 218.69 24.2952 219.078 23.9661C219.466 23.6252 219.66 23.1492 219.66 22.538V21.7447L218.637 21.7799ZM236.259 16.4028C237.352 16.4028 238.174 16.6848 238.727 17.249C239.291 17.8014 239.573 18.6947 239.573 19.9288V26.2051H236.946V20.5811C236.946 19.8876 236.829 19.3705 236.594 19.0296C236.359 18.677 235.994 18.5007 235.501 18.5007C234.807 18.5007 234.313 18.7476 234.02 19.2412C233.726 19.7348 233.579 20.4459 233.579 21.3744V26.2051H230.952V20.5811C230.952 20.1227 230.899 19.7407 230.793 19.4351C230.688 19.1295 230.529 18.9004 230.317 18.7476C230.106 18.583 229.835 18.5007 229.506 18.5007C229.024 18.5007 228.642 18.6242 228.36 18.871C228.078 19.1178 227.879 19.4763 227.761 19.9464C227.643 20.4165 227.585 20.9925 227.585 21.6742V26.2051H224.958V16.5791H226.968L227.32 17.8132H227.461C227.661 17.4841 227.908 17.2196 228.202 17.0198C228.496 16.8083 228.819 16.6555 229.171 16.5614C229.536 16.4557 229.9 16.4028 230.264 16.4028C230.97 16.4028 231.569 16.5203 232.063 16.7554C232.556 16.9787 232.932 17.3313 233.191 17.8132H233.42C233.714 17.3195 234.12 16.961 234.637 16.7377C235.166 16.5144 235.706 16.4028 236.259 16.4028ZM246.245 16.4028C247.138 16.4028 247.902 16.5732 248.537 16.914C249.183 17.2549 249.683 17.7485 250.035 18.395C250.388 19.0414 250.564 19.8347 250.564 20.775V22.0444H244.358C244.382 22.7848 244.599 23.3666 245.011 23.7898C245.434 24.2129 246.016 24.4244 246.756 24.4244C247.379 24.4244 247.943 24.3657 248.448 24.2481C248.954 24.1189 249.477 23.9249 250.018 23.6663V25.6938C249.547 25.9289 249.048 26.0993 248.519 26.2051C248.002 26.3226 247.373 26.3814 246.633 26.3814C245.669 26.3814 244.817 26.2051 244.076 25.8525C243.336 25.4881 242.754 24.9416 242.331 24.2129C241.908 23.4842 241.696 22.5674 241.696 21.4626C241.696 20.3343 241.884 19.3999 242.26 18.6594C242.648 17.9072 243.183 17.343 243.865 16.9669C244.546 16.5908 245.34 16.4028 246.245 16.4028ZM246.262 18.2715C245.757 18.2715 245.334 18.4361 244.993 18.7652C244.664 19.0943 244.47 19.6056 244.411 20.299H248.096C248.096 19.9111 248.025 19.5644 247.884 19.2588C247.755 18.9532 247.555 18.7123 247.285 18.536C247.015 18.3597 246.674 18.2715 246.262 18.2715ZM259.411 23.349C259.411 23.9954 259.258 24.5479 258.953 25.0062C258.647 25.4529 258.189 25.7937 257.578 26.0288C256.966 26.2638 256.208 26.3814 255.303 26.3814C254.633 26.3814 254.058 26.3344 253.576 26.2403C253.094 26.1581 252.612 26.017 252.13 25.8172V23.6487C252.647 23.8838 253.205 24.0777 253.805 24.2305C254.404 24.3833 254.933 24.4597 255.392 24.4597C255.909 24.4597 256.273 24.3833 256.485 24.2305C256.708 24.0777 256.82 23.8779 256.82 23.6311C256.82 23.4665 256.773 23.3196 256.679 23.1903C256.596 23.0611 256.408 22.9141 256.114 22.7496C255.821 22.585 255.362 22.3735 254.739 22.1149C254.14 21.8563 253.646 21.6036 253.258 21.3568C252.87 21.0982 252.582 20.7926 252.394 20.44C252.206 20.0757 252.112 19.6232 252.112 19.0825C252.112 18.1893 252.459 17.5193 253.153 17.0727C253.846 16.6261 254.769 16.4028 255.92 16.4028C256.52 16.4028 257.09 16.4615 257.631 16.5791C258.171 16.6966 258.73 16.8905 259.305 17.1609L258.512 19.0473C258.195 18.9062 257.889 18.7828 257.595 18.677C257.301 18.5713 257.014 18.489 256.731 18.4302C256.461 18.3715 256.179 18.3421 255.885 18.3421C255.497 18.3421 255.203 18.395 255.004 18.5007C254.816 18.6065 254.722 18.7652 254.722 18.9768C254.722 19.1295 254.769 19.2706 254.863 19.3999C254.968 19.5174 255.162 19.6467 255.444 19.7877C255.738 19.9288 256.167 20.1168 256.731 20.3519C257.284 20.5752 257.76 20.8103 258.159 21.0571C258.559 21.2922 258.865 21.5919 259.076 21.9562C259.3 22.3088 259.411 22.7731 259.411 23.349Z" fill="white"/>
<rect width="32.0664" height="35.4069" transform="translate(424.11 1)" fill="#C1C6CA"/>
<path d="M424.116 1L456.17 1V4.20547L424.116 4.20547V1Z" fill="#B6B6B6"/>
<path d="M456.17 1H456.972V0.198634H456.17V1ZM456.17 4.20547V5.00683H456.972V4.20547H456.17ZM424.116 1.80137L456.17 1.80137V0.198634L424.116 0.198634V1.80137ZM455.369 1V4.20547H456.972V1H455.369ZM456.17 3.4041L424.116 3.4041V5.00683L456.17 5.00683V3.4041Z" fill="black"/>
<path d="M444.945 17.0273H440.137H435.329L440.137 21.8355L444.945 17.0273Z" fill="black" stroke="black" stroke-width="1.60273"/>
<rect x="424.11" y="33.2012" width="32.0547" height="3.20547" fill="#858585"/>
<rect x="424.11" y="4.35156" width="32.0547" height="3.20547" fill="#ECEDF1"/>
<rect x="452.959" y="36.4062" width="32.0547" height="3.20547" transform="rotate(-90 452.959 36.4062)" fill="#6F7376"/>
<rect x="424.11" y="36.4062" width="32.0547" height="3.20547" transform="rotate(-90 424.11 36.4062)" fill="#B8B9BB"/>
<rect x="424.122" y="4.20508" width="32.0547" height="32.0547" stroke="black" stroke-width="1.60273"/>
<path fill-rule="evenodd" clip-rule="evenodd" d="M456.176 1L491.436 1V36.2601H456.176L488.231 36.2601V4.20546L456.176 4.20546L456.176 1Z" fill="#B6B6B6"/>
<path d="M491.436 1V0.198634H492.238V1H491.436ZM456.176 1L455.375 0.999996L455.375 0.198634H456.176V1ZM491.436 36.2601H492.238V37.0615H491.436V36.2601ZM488.231 36.2601H489.032V37.0615H488.231L488.231 36.2601ZM488.231 4.20546V3.40409H489.032V4.20546H488.231ZM456.176 4.20546V5.00683H455.375L455.375 4.20546L456.176 4.20546ZM491.436 1.80137L456.176 1.80137V0.198634L491.436 0.198634V1.80137ZM490.635 36.2601V1H492.238V36.2601H490.635ZM456.176 35.4588H491.436V37.0615H456.176V35.4588ZM456.176 35.4588L488.231 35.4588L488.231 37.0615L456.176 37.0615V35.4588ZM487.429 36.2601V4.20546H489.032V36.2601H487.429ZM488.231 5.00683L456.176 5.00683V3.40409L488.231 3.40409V5.00683ZM456.978 1L456.978 4.20547L455.375 4.20546L455.375 0.999996L456.978 1Z" fill="black"/>
<rect x="456.188" y="4.20508" width="32.0547" height="32.0547" fill="#C1C6CA" stroke="black" stroke-width="1.60273"/>
<rect x="456.176" y="33.2012" width="32.0547" height="3.20547" fill="#858585"/>
<rect x="456.176" y="4.35156" width="32.0547" height="3.20547" fill="#ECEDF1"/>
<rect x="485.025" y="36.4062" width="32.0547" height="3.20547" transform="rotate(-90 485.025 36.4062)" fill="#6F7376"/>
<rect x="456.176" y="36.4062" width="32.0547" height="3.20547" transform="rotate(-90 456.176 36.4062)" fill="#B8B9BB"/>
<rect x="456.188" y="4.20508" width="32.0547" height="32.0547" stroke="black" stroke-width="1.60273"/>
<path d="M467.384 21.835L472.192 21.835L477 21.835L472.192 17.0268L467.384 21.835Z" fill="black" stroke="black" stroke-width="1.60273"/>
<rect x="1" y="446.707" width="410.3" height="3.20547" transform="rotate(-90 1 446.707)" fill="#B6B6B6"/>
<rect x="1" y="446.707" width="410.3" height="3.20547" transform="rotate(-90 1 446.707)" stroke="black" stroke-width="1.60273"/>
<g clip-path="url(#clip0_1123_258)">
<rect x="4.20551" y="36.4072" width="484.025" height="35.2601" fill="white"/>
<rect x="4.20551" y="36.4072" width="484.025" height="35.2601" stroke="black" stroke-width="1.60273"/>
<path d="M21.2409 60.0371H18.614V47.4492H25.8247V49.6354H21.2409V52.8793H25.5074V55.0654H21.2409V60.0371ZM30.7052 50.4111V60.0371H28.0784V50.4111H30.7052ZM29.4006 46.6383C29.7885 46.6383 30.1234 46.7323 30.4055 46.9203C30.6876 47.0966 30.8287 47.4316 30.8287 47.9253C30.8287 48.4071 30.6876 48.7421 30.4055 48.9302C30.1234 49.1182 29.7885 49.2123 29.4006 49.2123C29.001 49.2123 28.6602 49.1182 28.3781 48.9302C28.1077 48.7421 27.9726 48.4071 27.9726 47.9253C27.9726 47.4316 28.1077 47.0966 28.3781 46.9203C28.6602 46.7323 29.001 46.6383 29.4006 46.6383ZM36.0769 60.0371H33.45V46.6383H36.0769V60.0371ZM42.7884 50.2348C43.6817 50.2348 44.4457 50.4052 45.0804 50.7461C45.7268 51.0869 46.2263 51.5806 46.5789 52.227C46.9315 52.8734 47.1078 53.6668 47.1078 54.607V55.8764H40.902C40.9255 56.6169 41.143 57.1987 41.5543 57.6218C41.9775 58.0449 42.5593 58.2565 43.2997 58.2565C43.9226 58.2565 44.4868 58.1977 44.9922 58.0802C45.4976 57.9509 46.0206 57.757 46.5613 57.4984V59.5258C46.0911 59.7609 45.5916 59.9313 45.0627 60.0371C44.5456 60.1546 43.9168 60.2134 43.1763 60.2134C42.2125 60.2134 41.3604 60.0371 40.6199 59.6845C39.8795 59.3202 39.2977 58.7736 38.8746 58.0449C38.4515 57.3162 38.2399 56.3994 38.2399 55.2946C38.2399 54.1663 38.4279 53.2319 38.8041 52.4914C39.1919 51.7392 39.7267 51.1751 40.4084 50.799C41.0901 50.4228 41.8834 50.2348 42.7884 50.2348ZM42.8061 52.1036C42.3007 52.1036 41.8776 52.2681 41.5367 52.5972C41.2076 52.9263 41.0137 53.4376 40.9549 54.131H44.6396C44.6396 53.7432 44.5691 53.3965 44.428 53.0909C44.2988 52.7853 44.0989 52.5443 43.8286 52.368C43.5583 52.1917 43.2174 52.1036 42.8061 52.1036Z" fill="black"/>
<path d="M17.0273 62.2409H26.7062V63.1224H17.0273V62.2409Z" fill="black"/>
<path d="M93.093 53.7255C93.093 54.7011 92.9696 55.5885 92.7228 56.3877C92.4877 57.1752 92.1234 57.8569 91.6297 58.4328C91.1478 59.0087 90.5249 59.4494 89.7609 59.755C89.0087 60.0606 88.1213 60.2134 87.0988 60.2134C86.0763 60.2134 85.183 60.0606 84.419 59.755C83.6668 59.4377 83.0439 58.9969 82.5502 58.4328C82.0684 57.8569 81.704 57.1693 81.4572 56.3701C81.2221 55.5708 81.1046 54.6834 81.1046 53.7079C81.1046 52.4033 81.3161 51.2691 81.7393 50.3053C82.1741 49.3415 82.8323 48.5952 83.7138 48.0663C84.6071 47.5256 85.7413 47.2553 87.1164 47.2553C88.4798 47.2553 89.6023 47.5256 90.4838 48.0663C91.3653 48.5952 92.0176 49.3474 92.4407 50.3229C92.8756 51.2867 93.093 52.4209 93.093 53.7255ZM83.9078 53.7255C83.9078 54.607 84.0194 55.3651 84.2427 55.9998C84.466 56.6345 84.8128 57.1223 85.2829 57.4631C85.753 57.804 86.3583 57.9744 87.0988 57.9744C87.8628 57.9744 88.4739 57.804 88.9323 57.4631C89.4025 57.1223 89.7433 56.6345 89.9549 55.9998C90.1782 55.3651 90.2898 54.607 90.2898 53.7255C90.2898 52.3974 90.043 51.3572 89.5494 50.605C89.0557 49.8528 88.2448 49.4767 87.1164 49.4767C86.3642 49.4767 85.753 49.6471 85.2829 49.988C84.8128 50.3288 84.466 50.8166 84.2427 51.4513C84.0194 52.086 83.9078 52.844 83.9078 53.7255ZM100.848 50.2348C101.93 50.2348 102.805 50.6579 103.475 51.5042C104.145 52.3386 104.48 53.5728 104.48 55.2065C104.48 56.2995 104.322 57.2222 104.004 57.9744C103.687 58.7149 103.252 59.2731 102.7 59.6492C102.147 60.0254 101.507 60.2134 100.778 60.2134C100.32 60.2134 99.9199 60.1546 99.5791 60.0371C99.25 59.9196 98.9679 59.7668 98.7328 59.5787C98.4978 59.3907 98.2921 59.1909 98.1158 58.9793H97.9748C98.0218 59.2026 98.057 59.4377 98.0805 59.6845C98.104 59.9196 98.1158 60.1546 98.1158 60.3897V64.2683H95.4889V50.4111H97.6222L97.9924 51.6628H98.1158C98.2921 51.4043 98.5037 51.1692 98.7505 50.9576C98.9973 50.7343 99.2911 50.558 99.632 50.4287C99.9846 50.2994 100.39 50.2348 100.848 50.2348ZM100.002 52.3328C99.5438 52.3328 99.1795 52.4268 98.9091 52.6149C98.6388 52.8029 98.439 53.0909 98.3097 53.4787C98.1922 53.8548 98.1275 54.3308 98.1158 54.9068V55.1888C98.1158 55.8118 98.1746 56.3407 98.2921 56.7755C98.4096 57.1987 98.6094 57.5219 98.8915 57.7452C99.1736 57.9685 99.5556 58.0802 100.037 58.0802C100.437 58.0802 100.766 57.9685 101.025 57.7452C101.283 57.5219 101.477 57.1928 101.607 56.7579C101.736 56.323 101.8 55.7941 101.8 55.1712C101.8 54.2309 101.654 53.5257 101.36 53.0556C101.078 52.5737 100.625 52.3328 100.002 52.3328ZM110.7 58.1154C110.994 58.1154 111.276 58.086 111.547 58.0273C111.817 57.9685 112.087 57.898 112.358 57.8157V59.7727C112.075 59.8902 111.723 59.9901 111.3 60.0724C110.888 60.1664 110.436 60.2134 109.942 60.2134C109.366 60.2134 108.849 60.1194 108.391 59.9313C107.944 59.7433 107.586 59.4201 107.315 58.9617C107.057 58.4915 106.928 57.8451 106.928 57.0224V52.3857H105.676V51.275L107.121 50.3935L107.88 48.366H109.554V50.4111H112.252V52.3857H109.554V57.0224C109.554 57.3867 109.66 57.6629 109.872 57.851C110.083 58.0273 110.36 58.1154 110.7 58.1154ZM116.917 50.4111V60.0371H114.29V50.4111H116.917ZM115.612 46.6383C116 46.6383 116.335 46.7323 116.617 46.9203C116.899 47.0966 117.04 47.4316 117.04 47.9253C117.04 48.4071 116.899 48.7421 116.617 48.9302C116.335 49.1182 116 49.2123 115.612 49.2123C115.212 49.2123 114.872 49.1182 114.589 48.9302C114.319 48.7421 114.184 48.4071 114.184 47.9253C114.184 47.4316 114.319 47.0966 114.589 46.9203C114.872 46.7323 115.212 46.6383 115.612 46.6383ZM128.406 55.2065C128.406 56.0057 128.294 56.7168 128.071 57.3397C127.859 57.9626 127.548 58.4915 127.137 58.9264C126.737 59.3495 126.249 59.6728 125.673 59.8961C125.097 60.1076 124.445 60.2134 123.716 60.2134C123.046 60.2134 122.423 60.1076 121.848 59.8961C121.283 59.6728 120.796 59.3495 120.384 58.9264C119.973 58.4915 119.65 57.9626 119.415 57.3397C119.191 56.7168 119.08 56.0057 119.08 55.2065C119.08 54.1369 119.268 53.2378 119.644 52.5091C120.02 51.7686 120.561 51.2044 121.266 50.8166C121.971 50.4287 122.805 50.2348 123.769 50.2348C124.674 50.2348 125.473 50.4287 126.167 50.8166C126.86 51.2044 127.407 51.7686 127.806 52.5091C128.206 53.2378 128.406 54.1369 128.406 55.2065ZM121.759 55.2065C121.759 55.8412 121.824 56.3759 121.953 56.8108C122.094 57.2339 122.312 57.5571 122.606 57.7805C122.899 57.992 123.281 58.0978 123.752 58.0978C124.222 58.0978 124.598 57.992 124.88 57.7805C125.174 57.5571 125.385 57.2339 125.515 56.8108C125.656 56.3759 125.726 55.8412 125.726 55.2065C125.726 54.5718 125.656 54.0429 125.515 53.6198C125.385 53.1966 125.174 52.8793 124.88 52.6677C124.586 52.4562 124.204 52.3504 123.734 52.3504C123.04 52.3504 122.535 52.5913 122.218 53.0732C121.912 53.5434 121.759 54.2544 121.759 55.2065ZM136.042 50.2348C137.076 50.2348 137.905 50.5169 138.528 51.081C139.151 51.6334 139.462 52.5267 139.462 53.7608V60.0371H136.836V54.4131C136.836 53.7197 136.712 53.2025 136.465 52.8617C136.218 52.5091 135.825 52.3328 135.284 52.3328C134.485 52.3328 133.938 52.609 133.645 53.1614C133.351 53.702 133.204 54.4836 133.204 55.5062V60.0371H130.577V50.4111H132.587L132.939 51.6452H133.08C133.292 51.3161 133.55 51.0517 133.856 50.8518C134.162 50.6403 134.502 50.4875 134.879 50.3935C135.255 50.2877 135.643 50.2348 136.042 50.2348ZM148.881 57.181C148.881 57.8275 148.728 58.3799 148.422 58.8383C148.117 59.2849 147.659 59.6257 147.047 59.8608C146.436 60.0959 145.678 60.2134 144.773 60.2134C144.103 60.2134 143.527 60.1664 143.045 60.0724C142.563 59.9901 142.082 59.8491 141.6 59.6492V57.4808C142.117 57.7158 142.675 57.9097 143.275 58.0625C143.874 58.2153 144.403 58.2917 144.861 58.2917C145.378 58.2917 145.743 58.2153 145.954 58.0625C146.178 57.9097 146.289 57.7099 146.289 57.4631C146.289 57.2986 146.242 57.1517 146.148 57.0224C146.066 56.8931 145.878 56.7462 145.584 56.5816C145.29 56.4171 144.832 56.2055 144.209 55.9469C143.609 55.6884 143.116 55.4357 142.728 55.1888C142.34 54.9303 142.052 54.6247 141.864 54.2721C141.676 53.9077 141.582 53.4552 141.582 52.9146C141.582 52.0213 141.929 51.3514 142.622 50.9047C143.316 50.4581 144.238 50.2348 145.39 50.2348C145.99 50.2348 146.56 50.2936 147.1 50.4111C147.641 50.5286 148.199 50.7226 148.775 50.9929L147.982 52.8793C147.664 52.7383 147.359 52.6149 147.065 52.5091C146.771 52.4033 146.483 52.321 146.201 52.2623C145.931 52.2035 145.649 52.1741 145.355 52.1741C144.967 52.1741 144.673 52.227 144.473 52.3328C144.285 52.4386 144.191 52.5972 144.191 52.8088C144.191 52.9616 144.238 53.1026 144.332 53.2319C144.438 53.3494 144.632 53.4787 144.914 53.6198C145.208 53.7608 145.637 53.9489 146.201 54.1839C146.754 54.4072 147.23 54.6423 147.629 54.8891C148.029 55.1242 148.334 55.4239 148.546 55.7883C148.769 56.1409 148.881 56.6051 148.881 57.181Z" fill="black"/>
<path d="M80.082 62.2409H94.1156V63.1224H80.082V62.2409Z" fill="black"/>
<path d="M199.185 47.4492L195.976 60.0371H192.944L191.234 53.4258C191.199 53.2965 191.152 53.1026 191.093 52.844C191.046 52.5855 190.987 52.3034 190.916 51.9978C190.858 51.6922 190.805 51.4043 190.758 51.1339C190.711 50.8518 190.676 50.6344 190.652 50.4816C190.64 50.6344 190.605 50.8518 190.546 51.1339C190.499 51.4043 190.446 51.6922 190.388 51.9978C190.329 52.2916 190.27 52.5737 190.211 52.844C190.153 53.1026 190.106 53.3024 190.07 53.4435L188.378 60.0371H185.345L182.137 47.4492H184.764L186.368 54.325C186.415 54.5248 186.468 54.7716 186.527 55.0654C186.585 55.3475 186.644 55.6472 186.703 55.9646C186.762 56.2702 186.815 56.5699 186.862 56.8637C186.92 57.1575 186.961 57.4102 186.985 57.6218C187.008 57.3985 187.044 57.1458 187.091 56.8637C187.138 56.5699 187.191 56.276 187.249 55.9822C187.308 55.6766 187.361 55.3945 187.408 55.136C187.467 54.8656 187.52 54.6541 187.567 54.5013L189.4 47.4492H191.921L193.755 54.5013C193.79 54.6541 193.837 54.8656 193.896 55.136C193.955 55.3945 194.014 55.6766 194.072 55.9822C194.131 56.2878 194.184 56.5875 194.231 56.8813C194.278 57.1634 194.313 57.4102 194.337 57.6218C194.372 57.328 194.425 56.9812 194.495 56.5816C194.566 56.1702 194.642 55.7589 194.725 55.3475C194.819 54.9361 194.895 54.5953 194.954 54.325L196.558 47.4492H199.185ZM203.183 50.4111V60.0371H200.557V50.4111H203.183ZM201.879 46.6383C202.267 46.6383 202.602 46.7323 202.884 46.9203C203.166 47.0966 203.307 47.4316 203.307 47.9253C203.307 48.4071 203.166 48.7421 202.884 48.9302C202.602 49.1182 202.267 49.2123 201.879 49.2123C201.479 49.2123 201.138 49.1182 200.856 48.9302C200.586 48.7421 200.451 48.4071 200.451 47.9253C200.451 47.4316 200.586 47.0966 200.856 46.9203C201.138 46.7323 201.479 46.6383 201.879 46.6383ZM211.394 50.2348C212.428 50.2348 213.256 50.5169 213.879 51.081C214.502 51.6334 214.814 52.5267 214.814 53.7608V60.0371H212.187V54.4131C212.187 53.7197 212.063 53.2025 211.817 52.8617C211.57 52.5091 211.176 52.3328 210.635 52.3328C209.836 52.3328 209.29 52.609 208.996 53.1614C208.702 53.702 208.555 54.4836 208.555 55.5062V60.0371H205.928V50.4111H207.938L208.291 51.6452H208.432C208.643 51.3161 208.902 51.0517 209.207 50.8518C209.513 50.6403 209.854 50.4875 210.23 50.3935C210.606 50.2877 210.994 50.2348 211.394 50.2348ZM220.565 60.2134C219.496 60.2134 218.62 59.7962 217.938 58.9617C217.268 58.1154 216.933 56.8755 216.933 55.2417C216.933 53.5963 217.274 52.3504 217.956 51.5042C218.638 50.6579 219.531 50.2348 220.636 50.2348C221.094 50.2348 221.5 50.2994 221.852 50.4287C222.205 50.5463 222.504 50.7108 222.751 50.9224C223.01 51.1339 223.227 51.3749 223.404 51.6452H223.492C223.456 51.4571 223.415 51.1868 223.368 50.8342C223.321 50.4699 223.298 50.0996 223.298 49.7235V46.6383H225.925V60.0371H223.915L223.404 58.7854H223.298C223.133 59.0439 222.922 59.2849 222.663 59.5082C222.416 59.7198 222.122 59.8902 221.782 60.0195C221.441 60.1488 221.035 60.2134 220.565 60.2134ZM221.482 58.1154C222.211 58.1154 222.722 57.9039 223.016 57.4808C223.31 57.0459 223.462 56.3994 223.474 55.5414V55.2594C223.474 54.3191 223.327 53.6021 223.033 53.1085C222.751 52.6149 222.222 52.368 221.447 52.368C220.871 52.368 220.418 52.6207 220.089 53.1261C219.76 53.6198 219.596 54.3367 219.596 55.277C219.596 56.2173 219.76 56.9283 220.089 57.4102C220.418 57.8804 220.883 58.1154 221.482 58.1154ZM237.416 55.2065C237.416 56.0057 237.305 56.7168 237.081 57.3397C236.87 57.9626 236.558 58.4915 236.147 58.9264C235.747 59.3495 235.259 59.6728 234.684 59.8961C234.108 60.1076 233.455 60.2134 232.727 60.2134C232.057 60.2134 231.434 60.1076 230.858 59.8961C230.294 59.6728 229.806 59.3495 229.395 58.9264C228.983 58.4915 228.66 57.9626 228.425 57.3397C228.202 56.7168 228.09 56.0057 228.09 55.2065C228.09 54.1369 228.278 53.2378 228.654 52.5091C229.03 51.7686 229.571 51.2044 230.276 50.8166C230.981 50.4287 231.816 50.2348 232.779 50.2348C233.684 50.2348 234.484 50.4287 235.177 50.8166C235.871 51.2044 236.417 51.7686 236.817 52.5091C237.216 53.2378 237.416 54.1369 237.416 55.2065ZM230.77 55.2065C230.77 55.8412 230.834 56.3759 230.964 56.8108C231.105 57.2339 231.322 57.5571 231.616 57.7805C231.91 57.992 232.292 58.0978 232.762 58.0978C233.232 58.0978 233.608 57.992 233.89 57.7805C234.184 57.5571 234.396 57.2339 234.525 56.8108C234.666 56.3759 234.736 55.8412 234.736 55.2065C234.736 54.5718 234.666 54.0429 234.525 53.6198C234.396 53.1966 234.184 52.8793 233.89 52.6677C233.596 52.4562 233.214 52.3504 232.744 52.3504C232.051 52.3504 231.545 52.5913 231.228 53.0732C230.922 53.5434 230.77 54.2544 230.77 55.2065ZM246.418 56.6698C246.371 56.47 246.301 56.1761 246.207 55.7883C246.124 55.3886 246.03 54.9655 245.925 54.5189C245.819 54.0605 245.719 53.6433 245.625 53.2672C245.531 52.8793 245.466 52.5972 245.431 52.4209H245.36C245.325 52.5972 245.261 52.8793 245.167 53.2672C245.084 53.6433 244.99 54.0605 244.884 54.5189C244.779 54.9655 244.679 55.3886 244.585 55.7883C244.491 56.1879 244.42 56.4935 244.373 56.705L243.597 60.0371H240.777L238.044 50.4111H240.653L241.764 54.6776C241.846 54.9714 241.917 55.324 241.975 55.7354C242.046 56.1467 242.111 56.5464 242.169 56.9342C242.228 57.3103 242.269 57.61 242.293 57.8334H242.363C242.375 57.6688 242.399 57.4514 242.434 57.181C242.469 56.899 242.51 56.611 242.557 56.3172C242.616 56.0233 242.663 55.7589 242.698 55.5238C242.745 55.277 242.781 55.1124 242.804 55.0302L243.985 50.4111H246.877L248.005 55.0302C248.052 55.1947 248.105 55.4592 248.164 55.8235C248.234 56.1879 248.293 56.5581 248.34 56.9342C248.399 57.3103 248.428 57.61 248.428 57.8334H248.499C248.522 57.6335 248.563 57.3456 248.622 56.9695C248.681 56.5816 248.745 56.1761 248.816 55.753C248.898 55.3299 248.981 54.9714 249.063 54.6776L250.209 50.4111H252.783L250.015 60.0371H247.159L246.418 56.6698ZM261.059 57.181C261.059 57.8275 260.906 58.3799 260.601 58.8383C260.295 59.2849 259.837 59.6257 259.226 59.8608C258.614 60.0959 257.856 60.2134 256.951 60.2134C256.281 60.2134 255.705 60.1664 255.224 60.0724C254.742 59.9901 254.26 59.8491 253.778 59.6492V57.4808C254.295 57.7158 254.853 57.9097 255.453 58.0625C256.052 58.2153 256.581 58.2917 257.039 58.2917C257.557 58.2917 257.921 58.2153 258.132 58.0625C258.356 57.9097 258.467 57.7099 258.467 57.4631C258.467 57.2986 258.42 57.1517 258.326 57.0224C258.244 56.8931 258.056 56.7462 257.762 56.5816C257.468 56.4171 257.01 56.2055 256.387 55.9469C255.788 55.6884 255.294 55.4357 254.906 55.1888C254.518 54.9303 254.23 54.6247 254.042 54.2721C253.854 53.9077 253.76 53.4552 253.76 52.9146C253.76 52.0213 254.107 51.3514 254.8 50.9047C255.494 50.4581 256.416 50.2348 257.568 50.2348C258.168 50.2348 258.738 50.2936 259.278 50.4111C259.819 50.5286 260.377 50.7226 260.953 50.9929L260.16 52.8793C259.843 52.7383 259.537 52.6149 259.243 52.5091C258.949 52.4033 258.661 52.321 258.379 52.2623C258.109 52.2035 257.827 52.1741 257.533 52.1741C257.145 52.1741 256.851 52.227 256.652 52.3328C256.464 52.4386 256.369 52.5972 256.369 52.8088C256.369 52.9616 256.416 53.1026 256.511 53.2319C256.616 53.3494 256.81 53.4787 257.092 53.6198C257.386 53.7608 257.815 53.9489 258.379 54.1839C258.932 54.4072 259.408 54.6423 259.807 54.8891C260.207 55.1242 260.513 55.4239 260.724 55.7883C260.947 56.1409 261.059 56.6051 261.059 57.181Z" fill="black"/>
<path d="M182.137 62.2409H199.185V63.1224H182.137V62.2409Z" fill="black"/>
<path d="M306.092 60.0371H303.429V54.607H298.44V60.0371H295.778V47.4492H298.44V52.3857H303.429V47.4492H306.092V60.0371ZM313.014 50.2348C313.907 50.2348 314.671 50.4052 315.306 50.7461C315.952 51.0869 316.452 51.5806 316.805 52.227C317.157 52.8734 317.333 53.6668 317.333 54.607V55.8764H311.128C311.151 56.6169 311.369 57.1987 311.78 57.6218C312.203 58.0449 312.785 58.2565 313.525 58.2565C314.148 58.2565 314.712 58.1977 315.218 58.0802C315.723 57.9509 316.246 57.757 316.787 57.4984V59.5258C316.317 59.7609 315.817 59.9313 315.288 60.0371C314.771 60.1546 314.142 60.2134 313.402 60.2134C312.438 60.2134 311.586 60.0371 310.846 59.6845C310.105 59.3202 309.523 58.7736 309.1 58.0449C308.677 57.3162 308.465 56.3994 308.465 55.2946C308.465 54.1663 308.654 53.2319 309.03 52.4914C309.418 51.7392 309.952 51.1751 310.634 50.799C311.316 50.4228 312.109 50.2348 313.014 50.2348ZM313.032 52.1036C312.526 52.1036 312.103 52.2681 311.762 52.5972C311.433 52.9263 311.239 53.4376 311.181 54.131H314.865C314.865 53.7432 314.795 53.3965 314.654 53.0909C314.524 52.7853 314.325 52.5443 314.054 52.368C313.784 52.1917 313.443 52.1036 313.032 52.1036ZM322.09 60.0371H319.463V46.6383H322.09V60.0371ZM330.195 50.2348C331.276 50.2348 332.152 50.6579 332.822 51.5042C333.492 52.3386 333.826 53.5728 333.826 55.2065C333.826 56.2995 333.668 57.2222 333.35 57.9744C333.033 58.7149 332.598 59.2731 332.046 59.6492C331.493 60.0254 330.853 60.2134 330.124 60.2134C329.666 60.2134 329.266 60.1546 328.925 60.0371C328.596 59.9196 328.314 59.7668 328.079 59.5787C327.844 59.3907 327.638 59.1909 327.462 58.9793H327.321C327.368 59.2026 327.403 59.4377 327.427 59.6845C327.45 59.9196 327.462 60.1546 327.462 60.3897V64.2683H324.835V50.4111H326.968L327.339 51.6628H327.462C327.638 51.4043 327.85 51.1692 328.097 50.9576C328.344 50.7343 328.637 50.558 328.978 50.4287C329.331 50.2994 329.736 50.2348 330.195 50.2348ZM329.348 52.3328C328.89 52.3328 328.526 52.4268 328.255 52.6149C327.985 52.8029 327.785 53.0909 327.656 53.4787C327.538 53.8548 327.474 54.3308 327.462 54.9068V55.1888C327.462 55.8118 327.521 56.3407 327.638 56.7755C327.756 57.1987 327.956 57.5219 328.238 57.7452C328.52 57.9685 328.902 58.0802 329.384 58.0802C329.783 58.0802 330.112 57.9685 330.371 57.7452C330.63 57.5219 330.823 57.1928 330.953 56.7579C331.082 56.323 331.147 55.7941 331.147 55.1712C331.147 54.2309 331 53.5257 330.706 53.0556C330.424 52.5737 329.971 52.3328 329.348 52.3328Z" fill="black"/>
<path d="M294.191 62.2409H307.678V63.1224H294.191V62.2409Z" fill="black"/>
<rect width="484.025" height="375.039" transform="translate(4.20551 71.667)" fill="white"/>
<rect x="79.2404" y="116.164" width="16.6145" height="2.07682" fill="black"/>
<rect x="75.0867" y="118.241" width="2.07682" height="2.07682" fill="black"/>
<rect x="77.1635" y="118.241" width="2.07682" height="2.07682" fill="black"/>
<rect x="73.0099" y="120.317" width="2.07682" height="2.07682" fill="black"/>
<rect x="70.933" y="120.317" width="2.07682" height="2.07682" fill="black"/>
<rect x="70.933" y="122.395" width="2.07682" height="2.07682" fill="black"/>
<rect x="68.8563" y="122.395" width="2.07682" height="2.07682" fill="black"/>
<rect x="66.7794" y="122.395" width="2.07682" height="2.07682" fill="black"/>
<rect x="66.7794" y="124.472" width="2.07682" height="2.07682" fill="black"/>
<rect x="66.7794" y="126.548" width="2.07682" height="2.07682" fill="black"/>
<rect x="66.7794" y="128.625" width="2.07682" height="2.07682" fill="black"/>
<rect x="64.7026" y="130.702" width="2.07682" height="2.07682" fill="black"/>
<rect x="64.7026" y="132.778" width="2.07682" height="2.07682" fill="black"/>
<rect x="64.7026" y="134.855" width="2.07682" height="2.07682" fill="black"/>
<rect x="64.7026" y="136.933" width="2.07682" height="2.07682" fill="black"/>
<rect x="64.7026" y="139.009" width="2.07682" height="2.07682" fill="black"/>
<rect x="64.7026" y="141.086" width="2.07682" height="2.07682" fill="black"/>
<rect x="64.7026" y="143.163" width="2.07682" height="2.07682" fill="black"/>
<rect x="64.7026" y="145.239" width="2.07682" height="2.07682" fill="black"/>
<rect x="66.7794" y="145.239" width="2.07682" height="2.07682" fill="black"/>
<rect x="66.7794" y="147.316" width="2.07682" height="2.07682" fill="black"/>
<rect x="66.7794" y="149.394" width="2.07682" height="2.07682" fill="black"/>
<rect x="68.8563" y="149.394" width="2.07682" height="2.07682" fill="black"/>
<rect x="68.8563" y="151.47" width="2.07682" height="2.07682" fill="black"/>
<rect x="68.8563" y="153.547" width="2.07682" height="2.07682" fill="black"/>
<rect x="70.933" y="151.47" width="2.07682" height="2.07682" fill="black"/>
<rect x="70.933" y="153.547" width="2.07682" height="2.07682" fill="black"/>
<rect x="73.0099" y="151.47" width="2.07682" height="2.07682" fill="black"/>
<rect x="73.0099" y="147.316" width="2.07682" height="2.07682" fill="black"/>
<rect x="75.0867" y="149.394" width="2.07682" height="2.07682" fill="black"/>
<rect x="77.1635" y="149.394" width="2.07682" height="2.07682" fill="black"/>
<rect x="77.1635" y="145.239" width="2.07682" height="2.07682" fill="black"/>
<rect x="79.2404" y="147.316" width="2.07682" height="2.07682" fill="black"/>
<rect x="81.3171" y="149.394" width="2.07682" height="2.07682" fill="black"/>
<rect x="81.3171" y="145.239" width="2.07682" height="2.07682" fill="black"/>
<rect x="83.394" y="147.316" width="2.07682" height="2.07682" fill="black"/>
<rect x="85.4708" y="149.394" width="2.07682" height="2.07682" fill="black"/>
<rect x="85.4708" y="151.47" width="2.07682" height="2.07682" fill="black"/>
<rect x="83.394" y="153.547" width="2.07682" height="2.07682" fill="black"/>
<rect x="85.4708" y="153.547" width="2.07682" height="2.07682" fill="black"/>
<rect x="85.4708" y="155.624" width="2.07682" height="2.07682" fill="black"/>
<rect x="83.394" y="155.624" width="2.07682" height="2.07682" fill="black"/>
<rect x="83.394" y="157.7" width="2.07682" height="2.07682" fill="black"/>
<rect x="83.394" y="159.777" width="2.07682" height="2.07682" fill="black"/>
<rect x="83.394" y="161.854" width="2.07682" height="2.07682" fill="black"/>
<rect x="83.394" y="163.931" width="2.07682" height="2.07682" fill="black"/>
<rect x="85.4708" y="163.931" width="2.07682" height="2.07682" fill="black"/>
<rect x="85.4708" y="166.008" width="2.07682" height="2.07682" fill="black"/>
<rect x="87.5476" y="166.008" width="2.07682" height="2.07682" fill="black"/>
<rect x="89.6245" y="163.931" width="2.07682" height="2.07682" fill="black"/>
<rect x="89.6245" y="161.854" width="2.07682" height="2.07682" fill="black"/>
<rect x="87.5476" y="159.777" width="2.07682" height="2.07682" fill="black"/>
<rect x="87.5476" y="157.7" width="2.07682" height="2.07682" fill="black"/>
<rect x="87.5476" y="155.624" width="2.07682" height="2.07682" fill="black"/>
<rect x="87.5476" y="153.547" width="2.07682" height="2.07682" fill="black"/>
<rect x="87.5476" y="151.47" width="2.07682" height="2.07682" fill="black"/>
<rect x="89.6245" y="151.47" width="2.07682" height="2.07682" fill="black"/>
<rect x="89.6245" y="153.547" width="2.07682" height="2.07682" fill="black"/>
<rect x="89.6245" y="155.624" width="2.07682" height="2.07682" fill="black"/>
<rect x="89.6245" y="157.7" width="2.07682" height="2.07682" fill="black"/>
<rect x="91.7012" y="157.7" width="2.07682" height="2.07682" fill="black"/>
<rect x="91.7012" y="159.777" width="2.07682" height="2.07682" fill="black"/>
<rect x="93.7781" y="159.777" width="2.07682" height="2.07682" fill="black"/>
<rect x="93.7781" y="157.7" width="2.07682" height="2.07682" fill="black"/>
<rect x="93.7781" y="155.624" width="2.07682" height="2.07682" fill="black"/>
<rect x="91.7012" y="155.624" width="2.07682" height="2.07682" fill="black"/>
<rect x="91.7012" y="153.547" width="2.07682" height="2.07682" fill="black"/>
<rect x="91.7012" y="151.47" width="2.07682" height="2.07682" fill="black"/>
<rect x="91.7012" y="149.394" width="2.07682" height="2.07682" fill="black"/>
<rect x="93.7781" y="149.394" width="2.07682" height="2.07682" fill="black"/>
<rect x="93.7781" y="151.47" width="2.07682" height="2.07682" fill="black"/>
<rect x="93.7781" y="153.547" width="2.07682" height="2.07682" fill="black"/>
<rect x="95.8549" y="153.547" width="2.07682" height="2.07682" fill="black"/>
<rect x="95.8549" y="155.624" width="2.07682" height="2.07682" fill="black"/>
<rect x="95.8549" y="157.7" width="2.07682" height="2.07682" fill="black"/>
<rect x="97.9317" y="157.7" width="2.07682" height="2.07682" fill="black"/>
<rect x="97.9317" y="155.624" width="2.07682" height="2.07682" fill="black"/>
<rect x="97.9317" y="153.547" width="2.07682" height="2.07682" fill="black"/>
<rect x="97.9317" y="151.47" width="2.07682" height="2.07682" fill="black"/>
<rect x="97.9317" y="149.394" width="2.07682" height="2.07682" fill="black"/>
<rect x="97.9317" y="147.316" width="2.07682" height="2.07682" fill="black"/>
<rect x="97.9317" y="147.316" width="2.07682" height="2.07682" fill="black"/>
<rect x="100.008" y="147.316" width="2.07682" height="2.07682" fill="black"/>
<rect x="100.008" y="149.394" width="2.07682" height="2.07682" fill="black"/>
<rect x="100.008" y="151.47" width="2.07682" height="2.07682" fill="black"/>
<rect x="100.008" y="153.547" width="2.07682" height="2.07682" fill="black"/>
<rect x="100.008" y="155.624" width="2.07682" height="2.07682" fill="black"/>
<rect x="100.008" y="157.7" width="2.07682" height="2.07682" fill="black"/>
<rect x="102.085" y="157.7" width="2.07682" height="2.07682" fill="black"/>
<rect x="102.085" y="159.777" width="2.07682" height="2.07682" fill="black"/>
<rect x="104.162" y="159.777" width="2.07682" height="2.07682" fill="black"/>
<rect x="104.162" y="157.7" width="2.07682" height="2.07682" fill="black"/>
<rect x="106.239" y="157.7" width="2.07682" height="2.07682" fill="black"/>
<rect x="106.239" y="155.624" width="2.07682" height="2.07682" fill="black"/>
<rect x="104.162" y="153.547" width="2.07682" height="2.07682" fill="black"/>
<rect x="104.162" y="151.47" width="2.07682" height="2.07682" fill="black"/>
<rect x="102.085" y="151.47" width="2.07682" height="2.07682" fill="black"/>
<rect x="102.085" y="149.394" width="2.07682" height="2.07682" fill="black"/>
<rect x="102.085" y="147.316" width="2.07682" height="2.07682" fill="black"/>
<rect x="102.085" y="145.239" width="2.07682" height="2.07682" fill="black"/>
<rect x="102.085" y="143.163" width="2.07682" height="2.07682" fill="black"/>
<rect x="104.162" y="143.163" width="2.07682" height="2.07682" fill="black"/>
<rect x="104.162" y="141.086" width="2.07682" height="2.07682" fill="black"/>
<rect x="106.239" y="141.086" width="2.07682" height="2.07682" fill="black"/>
<rect x="108.316" y="141.086" width="2.07682" height="2.07682" fill="black"/>
<rect x="110.393" y="141.086" width="2.07682" height="2.07682" fill="black"/>
<rect x="112.469" y="141.086" width="2.07682" height="2.07682" fill="black"/>
<rect x="112.469" y="139.009" width="2.07682" height="2.07682" fill="black"/>
<rect x="110.393" y="139.009" width="2.07682" height="2.07682" fill="black"/>
<rect x="108.316" y="139.009" width="2.07682" height="2.07682" fill="black"/>
<rect x="106.239" y="139.009" width="2.07682" height="2.07682" fill="black"/>
<rect x="104.162" y="139.009" width="2.07682" height="2.07682" fill="black"/>
<rect x="102.085" y="139.009" width="2.07682" height="2.07682" fill="black"/>
<rect x="102.085" y="136.933" width="2.07682" height="2.07682" fill="black"/>
<rect x="100.008" y="134.855" width="2.07682" height="2.07682" fill="black"/>
<rect x="97.9317" y="139.009" width="2.07682" height="2.07682" fill="black"/>
<rect x="95.8549" y="136.933" width="2.07682" height="2.07682" fill="black"/>
<rect x="89.6245" y="134.855" width="2.07682" height="2.07682" fill="black"/>
<rect x="89.6245" y="136.933" width="2.07682" height="2.07682" fill="black"/>
<rect x="91.7012" y="136.933" width="2.07682" height="2.07682" fill="black"/>
<rect x="87.5476" y="139.009" width="2.07682" height="2.07682" fill="black"/>
<rect x="83.394" y="141.086" width="2.07682" height="2.07682" fill="black"/>
<rect x="81.3171" y="139.009" width="2.07682" height="2.07682" fill="black"/>
<rect x="81.3171" y="136.933" width="2.07682" height="2.07682" fill="black"/>
<rect x="81.3171" y="134.855" width="2.07682" height="2.07682" fill="black"/>
<rect x="83.394" y="132.778" width="2.07682" height="2.07682" fill="black"/>
<rect x="83.394" y="134.855" width="2.07682" height="2.07682" fill="white"/>
<rect x="66.7794" y="136.933" width="2.07682" height="2.07682" fill="white"/>
<rect x="68.8563" y="136.933" width="2.07682" height="2.07682" fill="white"/>
<rect x="70.933" y="134.855" width="2.07682" height="2.07682" fill="white"/>
<rect x="70.933" y="132.778" width="2.07682" height="2.07682" fill="white"/>
<rect x="66.7794" y="132.778" width="2.07682" height="2.07682" fill="white"/>
<rect x="66.7794" y="130.702" width="2.07682" height="2.07682" fill="white"/>
<rect x="68.8563" y="130.702" width="2.07682" height="2.07682" fill="white"/>
<rect x="68.8563" y="128.625" width="2.07682" height="2.07682" fill="white"/>
<rect x="70.933" y="126.548" width="2.07682" height="2.07682" fill="white"/>
<rect x="70.933" y="124.472" width="2.07682" height="2.07682" fill="white"/>
<rect x="75.0867" y="126.548" width="2.07682" height="2.07682" fill="white"/>
<rect x="75.0867" y="122.395" width="2.07682" height="2.07682" fill="white"/>
<rect x="81.3171" y="118.241" width="2.07682" height="2.07682" fill="white"/>
<rect x="87.5476" y="118.241" width="2.07682" height="2.07682" fill="white"/>
<rect x="87.5476" y="120.317" width="2.07682" height="2.07682" fill="white"/>
<rect x="93.7781" y="120.317" width="2.07682" height="2.07682" fill="white"/>
<rect x="85.4708" y="120.317" width="2.07682" height="2.07682" fill="white"/>
<rect x="73.0099" y="132.778" width="2.07682" height="2.07682" fill="white"/>
<rect x="68.8563" y="139.009" width="2.07682" height="2.07682" fill="white"/>
<rect x="68.8563" y="141.086" width="2.07682" height="2.07682" fill="white"/>
<rect x="70.933" y="139.009" width="2.07682" height="2.07682" fill="white"/>
<rect x="83.394" y="136.933" width="2.07682" height="2.07682" fill="white"/>
<rect x="85.4708" y="136.933" width="2.07682" height="2.07682" fill="#F3F4F8"/>
<rect x="79.2404" y="136.933" width="2.07682" height="2.07682" fill="#F3F4F8"/>
<rect x="77.1635" y="134.855" width="2.07682" height="2.07682" fill="#F3F4F8"/>
<rect x="66.7794" y="134.855" width="2.07682" height="2.07682" fill="#F3F4F8"/>
<rect x="68.8563" y="132.778" width="2.07682" height="2.07682" fill="#F3F4F8"/>
<rect x="68.8563" y="126.548" width="2.07682" height="2.07682" fill="#F3F4F8"/>
<rect width="2.07682" height="2.07682" transform="matrix(1 0 0 -1 73.0099 126.548)" fill="#F3F4F8"/>
<rect width="2.07682" height="2.07682" transform="matrix(1 0 0 -1 73.0099 128.625)" fill="#F3F4F8"/>
<rect width="2.07682" height="2.07682" transform="matrix(1 0 0 -1 77.1635 126.548)" fill="#F3F4F8"/>
<rect width="2.07682" height="2.07682" transform="matrix(1 0 0 -1 79.2404 126.548)" fill="#F3F4F8"/>
<rect width="2.07682" height="2.07682" transform="matrix(1 0 0 -1 75.0867 122.395)" fill="#F3F4F8"/>
<rect width="2.07682" height="2.07682" transform="matrix(1 0 0 -1 77.1635 122.395)" fill="#F3F4F8"/>
<rect width="2.07682" height="2.07682" transform="matrix(1 0 0 -1 79.2404 122.395)" fill="#F3F4F8"/>
<rect width="2.07682" height="2.07682" transform="matrix(1 0 0 -1 81.3171 122.395)" fill="#F3F4F8"/>
<rect width="2.07682" height="2.07682" transform="matrix(1 0 0 -1 83.394 120.317)" fill="#F3F4F8"/>
<rect width="2.07682" height="2.07682" transform="matrix(1 0 0 -1 85.4708 120.317)" fill="#F3F4F8"/>
<rect width="2.07682" height="2.07682" transform="matrix(1 0 0 -1 91.7012 122.395)" fill="#F3F4F8"/>
<rect width="2.07682" height="2.07682" transform="matrix(1 0 0 -1 85.4708 124.472)" fill="#F3F4F8"/>
<rect width="2.07682" height="2.07682" transform="matrix(1 0 0 -1 87.5476 126.548)" fill="#F3F4F8"/>
<rect width="2.07682" height="2.07682" transform="matrix(1 0 0 -1 83.394 128.625)" fill="#F3F4F8"/>
<rect width="2.07682" height="2.07682" transform="matrix(1 0 0 -1 83.394 130.702)" fill="#F3F4F8"/>
<rect width="2.07682" height="2.07682" transform="matrix(1 0 0 -1 85.4708 128.625)" fill="#F3F4F8"/>
<rect width="2.07682" height="2.07682" transform="matrix(1 0 0 -1 89.6245 126.548)" fill="#F3F4F8"/>
<rect width="2.07682" height="2.07682" transform="matrix(1 0 0 -1 79.2404 120.317)" fill="#F3F4F8"/>
<rect width="2.07682" height="2.07682" transform="matrix(1 0 0 -1 73.0099 124.472)" fill="#F3F4F8"/>
<rect x="85.4708" y="134.855" width="2.07682" height="2.07682" fill="white"/>
<rect x="85.4708" y="132.778" width="2.07682" height="2.07682" fill="black"/>
<rect x="75.0867" y="147.316" width="2.07682" height="2.07682" fill="#909196"/>
<rect x="77.1635" y="147.316" width="2.07682" height="2.07682" fill="#909196"/>
<rect x="79.2404" y="149.394" width="2.07682" height="2.07682" fill="#909196"/>
<rect x="75.0867" y="151.47" width="2.07682" height="2.07682" fill="#909196"/>
<rect x="77.1635" y="151.47" width="2.07682" height="2.07682" fill="#909196"/>
<rect x="81.3171" y="147.316" width="2.07682" height="2.07682" fill="#909196"/>
<rect x="83.394" y="149.394" width="2.07682" height="2.07682" fill="#909196"/>
<rect x="85.4708" y="147.316" width="2.07682" height="2.07682" fill="#909196"/>
<rect x="83.394" y="145.239" width="2.07682" height="2.07682" fill="#909196"/>
<rect x="83.394" y="143.163" width="2.07682" height="2.07682" fill="#909196"/>
<rect x="81.3171" y="143.163" width="2.07682" height="2.07682" fill="#909196"/>
<rect x="79.2404" y="143.163" width="2.07682" height="2.07682" fill="#909196"/>
<rect x="79.2404" y="145.239" width="2.07682" height="2.07682" fill="#909196"/>
<rect x="77.1635" y="143.163" width="2.07682" height="2.07682" fill="#909196"/>
<rect x="75.0867" y="145.239" width="2.07682" height="2.07682" fill="#909196"/>
<rect x="79.2404" y="141.086" width="2.07682" height="2.07682" fill="#909196"/>
<rect x="87.5476" y="147.316" width="2.07682" height="2.07682" fill="#909196"/>
<rect x="87.5476" y="149.394" width="2.07682" height="2.07682" fill="#909196"/>
<rect x="89.6245" y="149.394" width="2.07682" height="2.07682" fill="#909196"/>
<rect x="93.7781" y="147.316" width="2.07682" height="2.07682" fill="#909196"/>
<rect x="95.8549" y="149.394" width="2.07682" height="2.07682" fill="#909196"/>
<rect x="95.8549" y="145.239" width="2.07682" height="2.07682" fill="#909196"/>
<rect x="100.008" y="145.239" width="2.07682" height="2.07682" fill="#909196"/>
<rect x="97.9317" y="143.163" width="2.07682" height="2.07682" fill="#909196"/>
<rect x="97.9317" y="141.086" width="2.07682" height="2.07682" fill="#909196"/>
<rect x="95.8549" y="141.086" width="2.07682" height="2.07682" fill="#909196"/>
<rect x="95.8549" y="139.009" width="2.07682" height="2.07682" fill="#909196"/>
<rect x="93.7781" y="136.933" width="2.07682" height="2.07682" fill="#909196"/>
<rect x="93.7781" y="134.855" width="2.07682" height="2.07682" fill="#909196"/>
<rect x="91.7012" y="134.855" width="2.07682" height="2.07682" fill="#909196"/>
<rect x="95.8549" y="134.855" width="2.07682" height="2.07682" fill="#909196"/>
<rect x="97.9317" y="134.855" width="2.07682" height="2.07682" fill="#909196"/>
<rect x="97.9317" y="136.933" width="2.07682" height="2.07682" fill="#909196"/>
<rect x="100.008" y="136.933" width="2.07682" height="2.07682" fill="#909196"/>
<rect x="102.085" y="134.855" width="2.07682" height="2.07682" fill="#909196"/>
<rect x="102.085" y="132.778" width="2.07682" height="2.07682" fill="#909196"/>
<rect x="100.008" y="132.778" width="2.07682" height="2.07682" fill="#909196"/>
<rect x="97.9317" y="132.778" width="2.07682" height="2.07682" fill="#909196"/>
<rect x="97.9317" y="130.702" width="2.07682" height="2.07682" fill="#909196"/>
<rect x="97.9317" y="128.625" width="2.07682" height="2.07682" fill="#909196"/>
<rect x="97.9317" y="126.548" width="2.07682" height="2.07682" fill="#909196"/>
<rect x="95.8549" y="126.548" width="2.07682" height="2.07682" fill="#909196"/>
<rect x="95.8549" y="124.472" width="2.07682" height="2.07682" fill="#909196"/>
<rect x="95.8549" y="132.778" width="2.07682" height="2.07682" fill="#909196"/>
<rect x="93.7781" y="132.778" width="2.07682" height="2.07682" fill="#909196"/>
<rect x="91.7012" y="132.778" width="2.07682" height="2.07682" fill="#909196"/>
<rect x="89.6245" y="132.778" width="2.07682" height="2.07682" fill="#909196"/>
<rect x="89.6245" y="130.702" width="2.07682" height="2.07682" fill="#909196"/>
<rect x="89.6245" y="128.625" width="2.07682" height="2.07682" fill="#909196"/>
<rect x="91.7012" y="128.625" width="2.07682" height="2.07682" fill="#909196"/>
<rect x="91.7012" y="126.548" width="2.07682" height="2.07682" fill="#909196"/>
<rect x="91.7012" y="130.702" width="2.07682" height="2.07682" fill="#909196"/>
<rect x="93.7781" y="130.702" width="2.07682" height="2.07682" fill="#909196"/>
<rect x="95.8549" y="128.625" width="2.07682" height="2.07682" fill="#909196"/>
<rect x="87.5476" y="130.702" width="2.07682" height="2.07682" fill="#909196"/>
<rect x="87.5476" y="132.778" width="2.07682" height="2.07682" fill="#909196"/>
<rect x="85.4708" y="130.702" width="2.07682" height="2.07682" fill="#909196"/>
<rect x="85.4708" y="139.009" width="2.07682" height="2.07682" fill="#909196"/>
<rect x="83.394" y="130.702" width="2.07682" height="2.07682" fill="#909196"/>
<rect x="81.3171" y="130.702" width="2.07682" height="2.07682" fill="#909196"/>
<rect x="102.085" y="130.702" width="2.07682" height="2.07682" fill="#909196"/>
<rect x="100.008" y="130.702" width="2.07682" height="2.07682" fill="#909196"/>
<rect x="100.008" y="139.009" width="2.07682" height="2.07682" fill="#909196"/>
<rect x="102.085" y="141.086" width="2.07682" height="2.07682" fill="#909196"/>
<rect x="83.394" y="151.47" width="2.07682" height="2.07682" fill="#909196"/>
<rect x="73.0099" y="153.547" width="2.07682" height="2.07682" fill="#131514"/>
<rect x="70.933" y="159.777" width="2.07682" height="2.07682" fill="#131514"/>
<rect x="70.933" y="147.316" width="2.07682" height="2.07682" fill="#909196"/>
<rect x="73.0099" y="149.394" width="2.07682" height="2.07682" fill="#909196"/>
<rect x="66.7794" y="139.009" width="2.07682" height="2.07682" fill="#CACBCD"/>
<rect x="66.7794" y="141.086" width="2.07682" height="2.07682" fill="#CACBCD"/>
<rect x="68.8563" y="143.163" width="2.07682" height="2.07682" fill="#CACBCD"/>
<rect x="70.933" y="143.163" width="2.07682" height="2.07682" fill="#CACBCD"/>
<rect x="70.933" y="141.086" width="2.07682" height="2.07682" fill="#CACBCD"/>
<rect x="68.8563" y="134.855" width="2.07682" height="2.07682" fill="#CACBCD"/>
<rect x="73.0099" y="141.086" width="2.07682" height="2.07682" fill="#CACBCD"/>
<rect x="73.0099" y="139.009" width="2.07682" height="2.07682" fill="#CACBCD"/>
<rect x="75.0867" y="139.009" width="2.07682" height="2.07682" fill="#CACBCD"/>
<rect x="75.0867" y="141.086" width="2.07682" height="2.07682" fill="#CACBCD"/>
<rect x="73.0099" y="143.163" width="2.07682" height="2.07682" fill="#CACBCD"/>
<rect x="70.933" y="145.239" width="2.07682" height="2.07682" fill="#CACBCD"/>
<rect x="73.0099" y="145.239" width="2.07682" height="2.07682" fill="#CACBCD"/>
<rect x="73.0099" y="136.933" width="2.07682" height="2.07682" fill="#CACBCD"/>
<rect x="75.0867" y="134.855" width="2.07682" height="2.07682" fill="#CACBCD"/>
<rect x="75.0867" y="132.778" width="2.07682" height="2.07682" fill="#CACBCD"/>
<rect x="75.0867" y="130.702" width="2.07682" height="2.07682" fill="#CACBCD"/>
<rect x="75.0867" y="128.625" width="2.07682" height="2.07682" fill="#CACBCD"/>
<rect x="77.1635" y="128.625" width="2.07682" height="2.07682" fill="#CACBCD"/>
<rect x="70.933" y="130.702" width="2.07682" height="2.07682" fill="#CACBCD"/>
<rect x="70.933" y="128.625" width="2.07682" height="2.07682" fill="#CACBCD"/>
<rect x="73.0099" y="128.625" width="2.07682" height="2.07682" fill="#CACBCD"/>
<rect x="77.1635" y="126.548" width="2.07682" height="2.07682" fill="#CACBCD"/>
<rect x="79.2404" y="126.548" width="2.07682" height="2.07682" fill="#CACBCD"/>
<rect x="79.2404" y="128.625" width="2.07682" height="2.07682" fill="#CACBCD"/>
<rect x="81.3171" y="126.548" width="2.07682" height="2.07682" fill="#CACBCD"/>
<rect x="83.394" y="124.472" width="2.07682" height="2.07682" fill="#CACBCD"/>
<rect x="85.4708" y="124.472" width="2.07682" height="2.07682" fill="#CACBCD"/>
<rect x="85.4708" y="128.625" width="2.07682" height="2.07682" fill="#CACBCD"/>
<rect x="87.5476" y="128.625" width="2.07682" height="2.07682" fill="#CACBCD"/>
<rect x="87.5476" y="126.548" width="2.07682" height="2.07682" fill="#CACBCD"/>
<rect x="89.6245" y="126.548" width="2.07682" height="2.07682" fill="#CACBCD"/>
<rect x="89.6245" y="122.395" width="2.07682" height="2.07682" fill="#CACBCD"/>
<rect x="87.5476" y="122.395" width="2.07682" height="2.07682" fill="#BEBDC2"/>
<rect x="89.6245" y="120.317" width="2.07682" height="2.07682" fill="#BEBDC2"/>
<rect x="91.7012" y="118.241" width="2.07682" height="2.07682" fill="#D0D0D0"/>
<rect x="93.7781" y="118.241" width="2.07682" height="2.07682" fill="#D0D0D0"/>
<rect x="89.6245" y="118.241" width="2.07682" height="2.07682" fill="#BEBDC2"/>
<rect x="91.7012" y="124.472" width="2.07682" height="2.07682" fill="#CACBCD"/>
<rect x="93.7781" y="124.472" width="2.07682" height="2.07682" fill="#CACBCD"/>
<rect x="93.7781" y="122.395" width="2.07682" height="2.07682" fill="#CACBCD"/>
<rect x="95.8549" y="122.395" width="2.07682" height="2.07682" fill="#CACBCD"/>
<rect x="97.9317" y="124.472" width="2.07682" height="2.07682" fill="#CACBCD"/>
<rect x="97.9317" y="122.395" width="2.07682" height="2.07682" fill="#CACBCD"/>
<rect x="97.9317" y="120.317" width="2.07682" height="2.07682" fill="#CACBCD"/>
<rect x="100.008" y="124.472" width="2.07682" height="2.07682" fill="#CACBCD"/>
<rect x="100.008" y="126.548" width="2.07682" height="2.07682" fill="#CACBCD"/>
<rect x="100.008" y="128.625" width="2.07682" height="2.07682" fill="#CACBCD"/>
<rect x="95.8549" y="130.702" width="2.07682" height="2.07682" fill="#CACBCD"/>
<rect x="93.7781" y="128.625" width="2.07682" height="2.07682" fill="#CACBCD"/>
<rect x="93.7781" y="126.548" width="2.07682" height="2.07682" fill="#CACBCD"/>
<rect x="95.8549" y="120.317" width="2.07682" height="2.07682" fill="#CACBCD"/>
<rect x="81.3171" y="122.395" width="2.07682" height="2.07682" fill="#CACBCD"/>
<rect x="83.394" y="120.317" width="2.07682" height="2.07682" fill="#CACBCD"/>
<rect x="79.2404" y="122.395" width="2.07682" height="2.07682" fill="#CACBCD"/>
<rect x="77.1635" y="122.395" width="2.07682" height="2.07682" fill="#CACBCD"/>
<rect x="75.0867" y="124.472" width="2.07682" height="2.07682" fill="#CACBCD"/>
<rect x="77.1635" y="130.702" width="2.07682" height="2.07682" fill="#CACBCD"/>
<rect x="85.4708" y="141.086" width="2.07682" height="2.07682" fill="black"/>
<rect x="85.4708" y="143.163" width="2.07682" height="2.07682" fill="black"/>
<rect x="85.4708" y="145.239" width="2.07682" height="2.07682" fill="black"/>
<rect x="87.5476" y="145.239" width="2.07682" height="2.07682" fill="black"/>
<rect x="89.6245" y="145.239" width="2.07682" height="2.07682" fill="black"/>
<rect x="89.6245" y="147.316" width="2.07682" height="2.07682" fill="black"/>
<rect x="91.7012" y="147.316" width="2.07682" height="2.07682" fill="black"/>
<rect x="91.7012" y="145.239" width="2.07682" height="2.07682" fill="black"/>
<rect x="93.7781" y="145.239" width="2.07682" height="2.07682" fill="black"/>
<rect x="87.5476" y="143.163" width="2.07682" height="2.07682" fill="black"/>
<rect x="89.6245" y="143.163" width="2.07682" height="2.07682" fill="black"/>
<rect x="91.7012" y="143.163" width="2.07682" height="2.07682" fill="black"/>
<rect x="93.7781" y="143.163" width="2.07682" height="2.07682" fill="black"/>
<rect x="95.8549" y="143.163" width="2.07682" height="2.07682" fill="black"/>
<rect x="87.5476" y="141.086" width="2.07682" height="2.07682" fill="black"/>
<rect x="89.6245" y="141.086" width="2.07682" height="2.07682" fill="black"/>
<rect x="91.7012" y="141.086" width="2.07682" height="2.07682" fill="black"/>
<rect x="93.7781" y="141.086" width="2.07682" height="2.07682" fill="black"/>
<rect x="89.6245" y="139.009" width="2.07682" height="2.07682" fill="black"/>
<rect x="87.5476" y="136.933" width="2.07682" height="2.07682" fill="#7D7E82"/>
<rect x="87.5476" y="134.855" width="2.07682" height="2.07682" fill="#7D7E82"/>
<rect x="83.394" y="139.009" width="2.07682" height="2.07682" fill="#7D7E82"/>
<rect x="81.3171" y="141.086" width="2.07682" height="2.07682" fill="#7D7E82"/>
<rect x="77.1635" y="141.086" width="2.07682" height="2.07682" fill="#7D7E82"/>
<rect x="79.2404" y="139.009" width="2.07682" height="2.07682" fill="#7D7E82"/>
<rect x="79.2404" y="134.855" width="2.07682" height="2.07682" fill="#7D7E82"/>
<rect x="79.2404" y="132.778" width="2.07682" height="2.07682" fill="#7D7E82"/>
<rect x="81.3171" y="132.778" width="2.07682" height="2.07682" fill="#7D7E82"/>
<rect x="77.1635" y="136.933" width="2.07682" height="2.07682" fill="#7D7E82"/>
<rect x="77.1635" y="139.009" width="2.07682" height="2.07682" fill="#7D7E82"/>
<rect x="75.0867" y="136.933" width="2.07682" height="2.07682" fill="#7D7E82"/>
<rect x="73.0099" y="134.855" width="2.07682" height="2.07682" fill="#7D7E82"/>
<rect x="73.0099" y="130.702" width="2.07682" height="2.07682" fill="#7D7E82"/>
<rect x="77.1635" y="132.778" width="2.07682" height="2.07682" fill="#7D7E82"/>
<rect x="79.2404" y="130.702" width="2.07682" height="2.07682" fill="#7D7E82"/>
<rect x="81.3171" y="128.625" width="2.07682" height="2.07682" fill="#7D7E82"/>
<rect x="81.3171" y="124.472" width="2.07682" height="2.07682" fill="#7D7E82"/>
<rect x="83.394" y="122.395" width="2.07682" height="2.07682" fill="#7D7E82"/>
<rect x="91.7012" y="122.395" width="2.07682" height="2.07682" fill="#7D7E82"/>
<rect x="70.933" y="136.933" width="2.07682" height="2.07682" fill="#7D7E82"/>
<rect x="68.8563" y="145.239" width="2.07682" height="2.07682" fill="#7D7E82"/>
<rect x="75.0867" y="143.163" width="2.07682" height="2.07682" fill="#7D7E82"/>
<rect x="91.7012" y="139.009" width="2.07682" height="2.07682" fill="black"/>
<rect x="93.7781" y="139.009" width="2.07682" height="2.07682" fill="black"/>
<rect x="100.008" y="141.086" width="2.07682" height="2.07682" fill="black"/>
<rect x="100.008" y="143.163" width="2.07682" height="2.07682" fill="black"/>
<rect x="104.162" y="136.933" width="2.07682" height="2.07682" fill="black"/>
<rect x="104.162" y="134.855" width="2.07682" height="2.07682" fill="black"/>
<rect x="104.162" y="132.778" width="2.07682" height="2.07682" fill="black"/>
<rect x="106.239" y="132.778" width="2.07682" height="2.07682" fill="black"/>
<rect x="108.316" y="132.778" width="2.07682" height="2.07682" fill="black"/>
<rect x="108.316" y="130.702" width="2.07682" height="2.07682" fill="black"/>
<rect x="106.239" y="130.702" width="2.07682" height="2.07682" fill="black"/>
<rect x="104.162" y="130.702" width="2.07682" height="2.07682" fill="black"/>
<rect x="102.085" y="128.625" width="2.07682" height="2.07682" fill="black"/>
<rect x="104.162" y="128.625" width="2.07682" height="2.07682" fill="black"/>
<rect x="106.239" y="128.625" width="2.07682" height="2.07682" fill="black"/>
<rect x="106.239" y="126.548" width="2.07682" height="2.07682" fill="black"/>
<rect x="104.162" y="126.548" width="2.07682" height="2.07682" fill="black"/>
<rect x="102.085" y="126.548" width="2.07682" height="2.07682" fill="black"/>
<rect x="102.085" y="124.472" width="2.07682" height="2.07682" fill="black"/>
<rect x="100.008" y="122.395" width="2.07682" height="2.07682" fill="black"/>
<rect x="100.008" y="120.317" width="2.07682" height="2.07682" fill="black"/>
<rect x="102.085" y="120.317" width="2.07682" height="2.07682" fill="black"/>
<rect x="102.085" y="122.395" width="2.07682" height="2.07682" fill="black"/>
<rect x="104.162" y="122.395" width="2.07682" height="2.07682" fill="black"/>
<rect x="106.239" y="122.395" width="2.07682" height="2.07682" fill="black"/>
<rect x="106.239" y="120.317" width="2.07682" height="2.07682" fill="black"/>
<rect x="106.239" y="118.241" width="2.07682" height="2.07682" fill="black"/>
<rect x="104.162" y="118.241" width="2.07682" height="2.07682" fill="black"/>
<rect x="95.8549" y="118.241" width="2.07682" height="2.07682" fill="black"/>
<rect x="97.9317" y="118.241" width="2.07682" height="2.07682" fill="black"/>
<rect x="108.316" y="122.395" width="2.07682" height="2.07682" fill="black"/>
<rect x="108.316" y="120.317" width="2.07682" height="2.07682" fill="black"/>
<rect x="104.162" y="124.472" width="2.07682" height="2.07682" fill="black"/>
<rect x="106.239" y="124.472" width="2.07682" height="2.07682" fill="black"/>
<rect x="106.239" y="134.855" width="2.07682" height="2.07682" fill="black"/>
<rect x="108.316" y="134.855" width="2.07682" height="2.07682" fill="black"/>
<rect x="110.393" y="134.855" width="2.07682" height="2.07682" fill="black"/>
<rect x="112.469" y="134.855" width="2.07682" height="2.07682" fill="black"/>
<rect x="114.546" y="136.933" width="2.07682" height="2.07682" fill="black"/>
<rect x="114.546" y="139.009" width="2.07682" height="2.07682" fill="black"/>
<rect x="106.239" y="136.933" width="2.07682" height="2.07682" fill="black"/>
<rect x="108.316" y="136.933" width="2.07682" height="2.07682" fill="black"/>
<rect x="106.239" y="143.163" width="2.07682" height="2.07682" fill="black"/>
<rect x="108.316" y="143.163" width="2.07682" height="2.07682" fill="black"/>
<rect x="108.316" y="145.239" width="2.07682" height="2.07682" fill="black"/>
<rect x="106.239" y="145.239" width="2.07682" height="2.07682" fill="black"/>
<rect x="104.162" y="145.239" width="2.07682" height="2.07682" fill="black"/>
<rect x="106.239" y="147.316" width="2.07682" height="2.07682" fill="black"/>
<rect x="104.162" y="149.394" width="2.07682" height="2.07682" fill="black"/>
<rect x="102.085" y="153.547" width="2.07682" height="2.07682" fill="black"/>
<rect x="102.085" y="155.624" width="2.07682" height="2.07682" fill="black"/>
<rect x="97.9317" y="145.239" width="2.07682" height="2.07682" fill="black"/>
<rect x="95.8549" y="147.316" width="2.07682" height="2.07682" fill="black"/>
<rect x="95.8549" y="151.47" width="2.07682" height="2.07682" fill="black"/>
<rect x="89.6245" y="159.777" width="2.07682" height="2.07682" fill="black"/>
<rect x="85.4708" y="161.854" width="2.07682" height="2.07682" fill="black"/>
<rect x="85.4708" y="159.777" width="2.07682" height="2.07682" fill="black"/>
<rect x="85.4708" y="157.7" width="2.07682" height="2.07682" fill="black"/>
<rect x="79.2404" y="151.47" width="2.07682" height="2.07682" fill="black"/>
<rect x="81.3171" y="151.47" width="2.07682" height="2.07682" fill="black"/>
<rect x="79.2404" y="153.547" width="2.07682" height="2.07682" fill="black"/>
<rect x="79.2404" y="155.624" width="2.07682" height="2.07682" fill="black"/>
<rect x="77.1635" y="155.624" width="2.07682" height="2.07682" fill="black"/>
<rect x="77.1635" y="153.547" width="2.07682" height="2.07682" fill="black"/>
<rect x="81.3171" y="153.547" width="2.07682" height="2.07682" fill="black"/>
<rect x="70.933" y="155.624" width="2.07682" height="2.07682" fill="black"/>
<rect x="73.0099" y="155.624" width="2.07682" height="2.07682" fill="black"/>
<rect x="75.0867" y="155.624" width="2.07682" height="2.07682" fill="black"/>
<rect x="77.1635" y="157.7" width="2.07682" height="2.07682" fill="black"/>
<rect x="79.2404" y="157.7" width="2.07682" height="2.07682" fill="black"/>
<rect x="79.2404" y="159.777" width="2.07682" height="2.07682" fill="black"/>
<rect x="81.3171" y="159.777" width="2.07682" height="2.07682" fill="black"/>
<rect x="81.3171" y="157.7" width="2.07682" height="2.07682" fill="black"/>
<rect x="81.3171" y="155.624" width="2.07682" height="2.07682" fill="black"/>
<rect x="75.0867" y="157.7" width="2.07682" height="2.07682" fill="black"/>
<rect x="75.0867" y="153.547" width="2.07682" height="2.07682" fill="black"/>
<rect x="73.0099" y="157.7" width="2.07682" height="2.07682" fill="black"/>
<rect x="66.7794" y="155.624" width="2.07682" height="2.07682" fill="black"/>
<rect x="66.7794" y="157.7" width="2.07682" height="2.07682" fill="black"/>
<rect x="68.8563" y="157.7" width="2.07682" height="2.07682" fill="black"/>
<rect x="70.933" y="157.7" width="2.07682" height="2.07682" fill="black"/>
<rect x="70.933" y="149.394" width="2.07682" height="2.07682" fill="black"/>
<rect x="68.8563" y="147.316" width="2.07682" height="2.07682" fill="black"/>
<rect x="66.7794" y="143.163" width="2.07682" height="2.07682" fill="black"/>
<rect x="62.6258" y="141.086" width="2.07682" height="2.07682" fill="black"/>
<rect x="60.549" y="141.086" width="2.07682" height="2.07682" fill="black"/>
<rect x="60.549" y="139.009" width="2.07682" height="2.07682" fill="black"/>
<rect x="58.4722" y="139.009" width="2.07682" height="2.07682" fill="black"/>
<rect x="58.4722" y="136.933" width="2.07682" height="2.07682" fill="black"/>
<rect x="60.549" y="134.855" width="2.07682" height="2.07682" fill="black"/>
<rect x="62.6258" y="134.855" width="2.07682" height="2.07682" fill="black"/>
<rect x="62.6258" y="139.009" width="2.07682" height="2.07682" fill="black"/>
<rect x="68.8563" y="124.472" width="2.07682" height="2.07682" fill="black"/>
<rect x="64.7026" y="122.395" width="2.07682" height="2.07682" fill="black"/>
<rect x="64.7026" y="120.317" width="2.07682" height="2.07682" fill="black"/>
<rect x="66.7794" y="120.317" width="2.07682" height="2.07682" fill="black"/>
<rect x="66.7794" y="118.241" width="2.07682" height="2.07682" fill="black"/>
<rect x="68.8563" y="118.241" width="2.07682" height="2.07682" fill="black"/>
<rect x="87.5476" y="112.011" width="4.15363" height="4.15363" fill="black"/>
<rect x="85.4708" y="109.934" width="4.15363" height="2.07682" fill="black"/>
<rect x="83.394" y="116.164" width="4.15363" height="2.07682" transform="rotate(-90 83.394 116.164)" fill="black"/>
<path d="M33.7577 190.084V177.496H35.3444V188.674H40.845V190.084H33.7577ZM51.0072 185.341C51.0072 186.129 50.9014 186.828 50.6899 187.439C50.4901 188.039 50.1962 188.55 49.8084 188.973C49.4323 189.396 48.968 189.72 48.4156 189.943C47.875 190.155 47.2697 190.26 46.5997 190.26C45.9768 190.26 45.4009 190.155 44.872 189.943C44.3431 189.72 43.8847 189.396 43.4968 188.973C43.109 188.55 42.8034 188.039 42.5801 187.439C42.3685 186.828 42.2627 186.129 42.2627 185.341C42.2627 184.295 42.439 183.414 42.7916 182.697C43.1442 181.968 43.6496 181.416 44.3078 181.04C44.966 180.652 45.7476 180.458 46.6526 180.458C47.5106 180.458 48.2628 180.652 48.9092 181.04C49.5674 181.416 50.0787 181.968 50.4431 182.697C50.8192 183.414 51.0072 184.295 51.0072 185.341ZM43.867 185.341C43.867 186.082 43.9611 186.728 44.1491 187.281C44.3489 187.821 44.6545 188.239 45.0659 188.533C45.4773 188.826 46.0003 188.973 46.635 188.973C47.2697 188.973 47.7927 188.826 48.204 188.533C48.6154 188.239 48.9151 187.821 49.1032 187.281C49.303 186.728 49.4029 186.082 49.4029 185.341C49.4029 184.589 49.303 183.949 49.1032 183.42C48.9034 182.891 48.5978 182.485 48.1864 182.203C47.7868 181.91 47.2638 181.763 46.6173 181.763C45.6536 181.763 44.9542 182.08 44.5194 182.715C44.0845 183.349 43.867 184.225 43.867 185.341ZM59.619 187.475C59.619 188.086 59.4662 188.597 59.1606 189.009C58.855 189.42 58.4201 189.731 57.856 189.943C57.2918 190.155 56.6218 190.26 55.8461 190.26C55.1879 190.26 54.6179 190.207 54.136 190.102C53.6659 189.996 53.2486 189.849 52.8843 189.661V188.25C53.2604 188.439 53.7129 188.615 54.2418 188.779C54.7824 188.932 55.329 189.009 55.8814 189.009C56.6689 189.009 57.2389 188.885 57.5915 188.638C57.9441 188.38 58.1204 188.039 58.1204 187.616C58.1204 187.381 58.0558 187.169 57.9265 186.981C57.7972 186.793 57.5621 186.605 57.2213 186.417C56.8922 186.229 56.4162 186.017 55.7932 185.782C55.1821 185.547 54.659 185.312 54.2242 185.077C53.7893 184.842 53.4543 184.56 53.2192 184.231C52.9842 183.902 52.8666 183.479 52.8666 182.961C52.8666 182.162 53.1899 181.545 53.8363 181.11C54.4945 180.675 55.3525 180.458 56.4103 180.458C56.9862 180.458 57.521 180.517 58.0146 180.634C58.52 180.74 58.9902 180.893 59.425 181.093L58.8961 182.327C58.6376 182.209 58.3613 182.109 58.0675 182.027C57.7854 181.933 57.4975 181.862 57.2036 181.815C56.9098 181.757 56.6101 181.727 56.3045 181.727C55.6698 181.727 55.1821 181.833 54.8412 182.045C54.5121 182.244 54.3476 182.521 54.3476 182.873C54.3476 183.132 54.424 183.355 54.5768 183.543C54.7296 183.72 54.9823 183.896 55.3349 184.072C55.6992 184.237 56.1811 184.436 56.7805 184.672C57.3799 184.895 57.8912 185.124 58.3143 185.359C58.7375 185.594 59.0607 185.882 59.284 186.223C59.5073 186.552 59.619 186.969 59.619 187.475ZM65.0581 188.991C65.2932 188.991 65.5341 188.973 65.7809 188.938C66.0278 188.891 66.2276 188.844 66.3804 188.797V189.978C66.2158 190.06 65.9807 190.125 65.6752 190.172C65.3696 190.231 65.0757 190.26 64.7937 190.26C64.3 190.26 63.8416 190.178 63.4185 190.013C63.0071 189.837 62.6722 189.537 62.4136 189.114C62.155 188.691 62.0257 188.098 62.0257 187.334V181.833H60.6859V181.093L62.0434 180.476L62.6604 178.466H63.5772V180.634H66.3098V181.833H63.5772V187.298C63.5772 187.874 63.7123 188.303 63.9827 188.585C64.2648 188.856 64.6232 188.991 65.0581 188.991ZM76.3959 177.496C78.0414 177.496 79.2402 177.819 79.9924 178.466C80.7446 179.112 81.1207 180.023 81.1207 181.198C81.1207 181.716 81.0326 182.215 80.8563 182.697C80.6918 183.167 80.4155 183.59 80.0277 183.966C79.6398 184.342 79.1227 184.642 78.4762 184.865C77.8298 185.077 77.0365 185.183 76.0962 185.183H74.6505V190.084H73.0638V177.496H76.3959ZM76.2549 178.854H74.6505V183.825H75.9199C76.7191 183.825 77.3832 183.743 77.9121 183.578C78.441 183.402 78.8347 183.126 79.0933 182.75C79.3519 182.374 79.4812 181.88 79.4812 181.269C79.4812 180.458 79.2226 179.853 78.7054 179.453C78.1883 179.053 77.3714 178.854 76.2549 178.854ZM87.1056 180.476C88.2574 180.476 89.1096 180.728 89.662 181.234C90.2144 181.739 90.4906 182.544 90.4906 183.649V190.084H89.3623L89.0625 188.744H88.992C88.7217 189.085 88.4396 189.373 88.1458 189.608C87.8637 189.831 87.5346 189.996 87.1585 190.102C86.7941 190.207 86.3475 190.26 85.8186 190.26C85.2544 190.26 84.7432 190.16 84.2848 189.961C83.8382 189.761 83.4856 189.455 83.227 189.044C82.9684 188.621 82.8391 188.092 82.8391 187.457C82.8391 186.517 83.2094 185.794 83.9498 185.289C84.6903 184.771 85.8304 184.489 87.3701 184.442L88.9744 184.389V183.825C88.9744 183.038 88.804 182.491 88.4631 182.186C88.1223 181.88 87.6404 181.727 87.0175 181.727C86.5238 181.727 86.0537 181.804 85.607 181.957C85.1604 182.098 84.7432 182.262 84.3553 182.45L83.8793 181.287C84.2907 181.063 84.7784 180.875 85.3426 180.722C85.9068 180.558 86.4944 180.476 87.1056 180.476ZM87.564 185.518C86.3886 185.565 85.5718 185.753 85.1134 186.082C84.6668 186.411 84.4435 186.875 84.4435 187.475C84.4435 188.004 84.6021 188.391 84.9195 188.638C85.2486 188.885 85.6658 189.009 86.1712 189.009C86.9704 189.009 87.6345 188.791 88.1634 188.356C88.6923 187.91 88.9568 187.228 88.9568 186.311V185.465L87.564 185.518ZM97.8167 180.458C97.993 180.458 98.181 180.47 98.3809 180.493C98.5924 180.505 98.7746 180.528 98.9274 180.564L98.7335 181.992C98.5807 181.957 98.4102 181.927 98.2222 181.904C98.0459 181.88 97.8755 181.868 97.7109 181.868C97.3466 181.868 96.9998 181.945 96.6707 182.098C96.3416 182.25 96.0478 182.468 95.7892 182.75C95.5307 183.02 95.325 183.349 95.1722 183.737C95.0311 184.125 94.9606 184.56 94.9606 185.042V190.084H93.4092V180.634H94.6785L94.8548 182.362H94.9254C95.1252 182.009 95.3661 181.692 95.6482 181.41C95.9303 181.116 96.2535 180.887 96.6178 180.722C96.9822 180.546 97.3818 180.458 97.8167 180.458ZM103.926 180.476C105.078 180.476 105.93 180.728 106.483 181.234C107.035 181.739 107.311 182.544 107.311 183.649V190.084H106.183L105.883 188.744H105.813C105.543 189.085 105.26 189.373 104.967 189.608C104.685 189.831 104.355 189.996 103.979 190.102C103.615 190.207 103.168 190.26 102.639 190.26C102.075 190.26 101.564 190.16 101.106 189.961C100.659 189.761 100.306 189.455 100.048 189.044C99.7893 188.621 99.66 188.092 99.66 187.457C99.66 186.517 100.03 185.794 100.771 185.289C101.511 184.771 102.651 184.489 104.191 184.442L105.795 184.389V183.825C105.795 183.038 105.625 182.491 105.284 182.186C104.943 181.88 104.461 181.727 103.838 181.727C103.345 181.727 102.875 181.804 102.428 181.957C101.981 182.098 101.564 182.262 101.176 182.45L100.7 181.287C101.112 181.063 101.599 180.875 102.163 180.722C102.728 180.558 103.315 180.476 103.926 180.476ZM104.385 185.518C103.21 185.565 102.393 185.753 101.934 186.082C101.488 186.411 101.264 186.875 101.264 187.475C101.264 188.004 101.423 188.391 101.74 188.638C102.069 188.885 102.487 189.009 102.992 189.009C103.791 189.009 104.455 188.791 104.984 188.356C105.513 187.91 105.778 187.228 105.778 186.311V185.465L104.385 185.518ZM113.58 190.26C112.404 190.26 111.464 189.855 110.759 189.044C110.054 188.221 109.701 186.999 109.701 185.377C109.701 183.755 110.054 182.532 110.759 181.71C111.476 180.875 112.422 180.458 113.597 180.458C114.091 180.458 114.52 180.523 114.884 180.652C115.249 180.769 115.566 180.934 115.836 181.146C116.107 181.357 116.336 181.592 116.524 181.851H116.63C116.618 181.698 116.594 181.475 116.559 181.181C116.536 180.875 116.524 180.634 116.524 180.458V176.685H118.075V190.084H116.824L116.594 188.815H116.524C116.336 189.085 116.107 189.332 115.836 189.555C115.566 189.767 115.243 189.937 114.867 190.066C114.502 190.196 114.073 190.26 113.58 190.26ZM113.827 188.973C114.826 188.973 115.525 188.703 115.925 188.162C116.336 187.61 116.542 186.781 116.542 185.676V185.394C116.542 184.219 116.348 183.32 115.96 182.697C115.572 182.062 114.855 181.745 113.809 181.745C112.974 181.745 112.346 182.08 111.923 182.75C111.511 183.408 111.305 184.295 111.305 185.412C111.305 186.54 111.511 187.416 111.923 188.039C112.346 188.662 112.98 188.973 113.827 188.973ZM122.628 180.634V190.084H121.077V180.634H122.628ZM121.87 177.091C122.105 177.091 122.311 177.173 122.487 177.337C122.675 177.49 122.769 177.737 122.769 178.078C122.769 178.407 122.675 178.654 122.487 178.818C122.311 178.983 122.105 179.065 121.87 179.065C121.611 179.065 121.394 178.983 121.218 178.818C121.041 178.654 120.953 178.407 120.953 178.078C120.953 177.737 121.041 177.49 121.218 177.337C121.394 177.173 121.611 177.091 121.87 177.091ZM131.775 187.475C131.775 188.086 131.622 188.597 131.316 189.009C131.011 189.42 130.576 189.731 130.012 189.943C129.448 190.155 128.778 190.26 128.002 190.26C127.344 190.26 126.774 190.207 126.292 190.102C125.822 189.996 125.404 189.849 125.04 189.661V188.25C125.416 188.439 125.869 188.615 126.398 188.779C126.938 188.932 127.485 189.009 128.037 189.009C128.825 189.009 129.395 188.885 129.747 188.638C130.1 188.38 130.276 188.039 130.276 187.616C130.276 187.381 130.212 187.169 130.082 186.981C129.953 186.793 129.718 186.605 129.377 186.417C129.048 186.229 128.572 186.017 127.949 185.782C127.338 185.547 126.815 185.312 126.38 185.077C125.945 184.842 125.61 184.56 125.375 184.231C125.14 183.902 125.022 183.479 125.022 182.961C125.022 182.162 125.346 181.545 125.992 181.11C126.65 180.675 127.508 180.458 128.566 180.458C129.142 180.458 129.677 180.517 130.17 180.634C130.676 180.74 131.146 180.893 131.581 181.093L131.052 182.327C130.793 182.209 130.517 182.109 130.223 182.027C129.941 181.933 129.653 181.862 129.359 181.815C129.066 181.757 128.766 181.727 128.46 181.727C127.826 181.727 127.338 181.833 126.997 182.045C126.668 182.244 126.503 182.521 126.503 182.873C126.503 183.132 126.58 183.355 126.733 183.543C126.885 183.72 127.138 183.896 127.491 184.072C127.855 184.237 128.337 184.436 128.936 184.672C129.536 184.895 130.047 185.124 130.47 185.359C130.893 185.594 131.217 185.882 131.44 186.223C131.663 186.552 131.775 186.969 131.775 187.475ZM137.708 180.458C138.519 180.458 139.212 180.634 139.788 180.987C140.376 181.339 140.822 181.839 141.128 182.485C141.445 183.12 141.604 183.866 141.604 184.724V185.659H135.134C135.157 186.728 135.427 187.545 135.945 188.109C136.473 188.662 137.208 188.938 138.148 188.938C138.748 188.938 139.277 188.885 139.735 188.779C140.205 188.662 140.687 188.497 141.181 188.286V189.643C140.699 189.855 140.223 190.008 139.753 190.102C139.283 190.207 138.724 190.26 138.078 190.26C137.185 190.26 136.391 190.078 135.698 189.714C135.016 189.349 134.481 188.809 134.093 188.092C133.717 187.363 133.529 186.476 133.529 185.43C133.529 184.395 133.7 183.508 134.041 182.768C134.393 182.027 134.881 181.457 135.504 181.057C136.139 180.658 136.873 180.458 137.708 180.458ZM137.69 181.727C136.95 181.727 136.362 181.968 135.927 182.45C135.504 182.92 135.251 183.578 135.169 184.425H139.982C139.982 183.884 139.9 183.414 139.735 183.014C139.571 182.615 139.318 182.303 138.977 182.08C138.648 181.845 138.219 181.727 137.69 181.727Z" fill="black"/>
<rect x="456.176" y="71.667" width="32.0547" height="375.039" fill="#BEC2C5"/>
<rect x="456.176" y="71.667" width="32.0547" height="375.039" stroke="black" stroke-width="1.60273"/>
<path d="M477.004 86.0918H472.198H467.391L472.198 90.9L477.004 86.0918Z" fill="#BEC2C5" stroke="black" stroke-width="1.60273"/>
<rect x="456.176" y="102.266" width="32.0429" height="3.20547" fill="#BEC2C5"/>
<rect x="456.176" y="73.416" width="32.0429" height="3.20547" fill="#BEC2C5"/>
<rect x="485.015" y="105.471" width="32.0547" height="3.20547" transform="rotate(-90 485.015 105.471)" fill="#BEC2C5"/>
<rect x="456.176" y="105.471" width="32.0547" height="3.20547" transform="rotate(-90 456.176 105.471)" fill="#BEC2C5"/>
<rect x="456.188" y="73.2695" width="32.0429" height="32.0547" fill="#BEC2C5" stroke="black" stroke-width="1.60273"/>
<path d="M467.391 86.0918L472.198 86.0918L477.004 86.0918L472.198 81.2836L467.391 86.0918Z" fill="black" stroke="black" stroke-width="1.60273"/>
<rect x="456.176" y="100.663" width="32.0429" height="3.20547" fill="#6F7376"/>
<rect x="456.176" y="71.8135" width="32.0429" height="3.20547" fill="#ECEDF1"/>
<rect x="485.015" y="103.868" width="32.0547" height="3.20547" transform="rotate(-90 485.015 103.868)" fill="#6F7376"/>
<rect x="456.176" y="103.868" width="32.0547" height="3.20547" transform="rotate(-90 456.176 103.868)" fill="#ECEDF1"/>
<rect x="456.188" y="71.667" width="32.0429" height="32.0547" stroke="black" stroke-width="1.60273"/>
<rect x="470.595" y="87.6943" width="3.20547" height="8.01366" fill="black" stroke="black" stroke-width="1.60273"/>
<path d="M477.004 116.69H472.198H467.391L472.198 121.499L477.004 116.69Z" fill="#BEC2C5" stroke="black" stroke-width="1.60273"/>
<rect x="456.176" y="132.864" width="32.0429" height="3.20547" fill="#BEC2C5"/>
<rect x="456.176" y="104.015" width="32.0429" height="3.20547" fill="#BEC2C5"/>
<rect x="485.015" y="136.069" width="32.0547" height="3.20547" transform="rotate(-90 485.015 136.069)" fill="#BEC2C5"/>
<rect x="456.176" y="136.069" width="32.0547" height="3.20547" transform="rotate(-90 456.176 136.069)" fill="#BEC2C5"/>
<rect x="456.188" y="103.868" width="32.0429" height="32.0547" fill="#BEC2C5" stroke="black" stroke-width="1.60273"/>
<rect x="456.176" y="132.864" width="32.0429" height="3.20547" fill="#6F7376"/>
<rect x="456.176" y="104.015" width="32.0429" height="3.20547" fill="#ECEDF1"/>
<rect x="485.015" y="136.069" width="32.0547" height="3.20547" transform="rotate(-90 485.015 136.069)" fill="#6F7376"/>
<rect x="456.176" y="136.069" width="32.0547" height="3.20547" transform="rotate(-90 456.176 136.069)" fill="#ECEDF1"/>
<rect x="456.188" y="103.868" width="32.0429" height="32.0547" stroke="black" stroke-width="1.60273"/>
<path d="M477.004 427.327H472.198H467.391L472.198 432.135L477.004 427.327Z" fill="#BEC2C5" stroke="black" stroke-width="1.60273"/>
<rect x="456.176" y="443.501" width="32.0429" height="3.20547" fill="#BEC2C5"/>
<rect x="456.176" y="414.651" width="32.0429" height="3.20547" fill="#BEC2C5"/>
<rect x="485.015" y="446.706" width="32.0547" height="3.20547" transform="rotate(-90 485.015 446.706)" fill="#BEC2C5"/>
<rect x="456.176" y="446.706" width="32.0547" height="3.20547" transform="rotate(-90 456.176 446.706)" fill="#BEC2C5"/>
<rect x="456.188" y="414.505" width="32.0429" height="32.0547" fill="#BEC2C5" stroke="black" stroke-width="1.60273"/>
<path d="M467.391 432.135L472.198 432.135L477.004 432.135L472.198 436.943L467.391 432.135Z" fill="black" stroke="black" stroke-width="1.60273"/>
<rect x="456.176" y="443.501" width="32.0429" height="3.20547" fill="#6F7376"/>
<rect x="456.176" y="414.651" width="32.0429" height="3.20547" fill="#ECEDF1"/>
<rect x="485.015" y="446.706" width="32.0547" height="3.20547" transform="rotate(-90 485.015 446.706)" fill="#6F7376"/>
<rect x="456.176" y="446.706" width="32.0547" height="3.20547" transform="rotate(-90 456.176 446.706)" fill="#ECEDF1"/>
<rect x="456.188" y="414.505" width="32.0429" height="32.0547" stroke="black" stroke-width="1.60273"/>
<rect width="3.20547" height="8.01366" transform="matrix(1 0 0 -1 470.595 432.135)" fill="black" stroke="black" stroke-width="1.60273"/>
</g>
<rect x="488.231" y="446.707" width="410.3" height="3.20547" transform="rotate(-90 488.231 446.707)" fill="#B6B6B6"/>
<rect x="488.231" y="446.707" width="410.3" height="3.20547" transform="rotate(-90 488.231 446.707)" stroke="black" stroke-width="1.60273"/>
<path d="M25.0333 461.131H20.2269H15.4205L20.2269 465.939L25.0333 461.131Z" fill="#BEC2C5" stroke="black" stroke-width="1.60273"/>
<rect x="4.20544" y="477.305" width="32.0429" height="3.20547" fill="#BEC2C5"/>
<rect x="4.20544" y="448.455" width="32.0429" height="3.20547" fill="#BEC2C5"/>
<rect x="33.0441" y="480.51" width="32.0547" height="3.20547" transform="rotate(-90 33.0441 480.51)" fill="#BEC2C5"/>
<rect x="4.20544" y="480.51" width="32.0547" height="3.20547" transform="rotate(-90 4.20544 480.51)" fill="#BEC2C5"/>
<rect x="4.21722" y="448.309" width="32.0429" height="32.0547" fill="#BEC2C5" stroke="black" stroke-width="1.60273"/>
<path d="M17.8228 468.341L17.8228 463.535L17.8228 458.729L13.0146 463.535L17.8228 468.341Z" fill="black" stroke="black" stroke-width="1.60273"/>
<rect x="4.20544" y="475.702" width="32.0429" height="3.20547" fill="#6F7376"/>
<rect x="4.20544" y="446.853" width="32.0429" height="3.20547" fill="#ECEDF1"/>
<rect x="33.0441" y="478.907" width="32.0547" height="3.20547" transform="rotate(-90 33.0441 478.907)" fill="#6F7376"/>
<rect x="4.20544" y="478.907" width="32.0547" height="3.20547" transform="rotate(-90 4.20544 478.907)" fill="#ECEDF1"/>
<rect x="4.21722" y="446.706" width="32.0429" height="32.0547" stroke="black" stroke-width="1.60273"/>
<rect x="19.4255" y="465.137" width="3.20547" height="8.01366" transform="rotate(-90 19.4255 465.137)" fill="black" stroke="black" stroke-width="1.60273"/>
<path fill-rule="evenodd" clip-rule="evenodd" d="M0.999999 446.706L1 481.966L36.2601 481.966L36.2601 478.76L4.20547 478.76L4.20547 446.706L0.999999 446.706Z" fill="#B6B6B6"/>
<path d="M1 481.966L0.198634 481.966L0.198634 482.767L1 482.767L1 481.966ZM0.999999 446.706L0.999997 445.904L0.198633 445.904L0.198633 446.706L0.999999 446.706ZM36.2601 481.966L36.2601 482.767L37.0615 482.767L37.0615 481.966L36.2601 481.966ZM36.2601 478.76L37.0615 478.76L37.0615 477.959L36.2601 477.959L36.2601 478.76ZM4.20547 478.76L3.40411 478.76L3.40411 479.562L4.20547 479.562L4.20547 478.76ZM4.20547 446.706L5.00684 446.706L5.00684 445.904L4.20547 445.904L4.20547 446.706ZM1.80137 481.966L1.80137 446.706L0.198633 446.706L0.198634 481.966L1.80137 481.966ZM36.2601 481.164L1 481.164L1 482.767L36.2601 482.767L36.2601 481.164ZM35.4588 478.76L35.4588 481.966L37.0615 481.966L37.0615 478.76L35.4588 478.76ZM36.2601 477.959L4.20547 477.959L4.20547 479.562L36.2601 479.562L36.2601 477.959ZM5.00684 478.76L5.00684 446.706L3.40411 446.706L3.40411 478.76L5.00684 478.76ZM1 447.507L4.20547 447.507L4.20547 445.904L0.999997 445.904L1 447.507Z" fill="black"/>
<rect x="36.2601" y="446.706" width="418.313" height="32.0547" fill="#BEC2C5"/>
<rect x="36.2601" y="446.706" width="418.313" height="32.0547" stroke="black" stroke-width="1.60273"/>
<path d="M57.088 459.528H52.2816H47.4752L52.2816 464.337L57.088 459.528Z" fill="#BEC2C5" stroke="black" stroke-width="1.60273"/>
<rect x="36.2601" y="475.702" width="32.0429" height="3.20547" fill="#BEC2C5"/>
<rect x="36.2601" y="446.853" width="32.0429" height="3.20547" fill="#BEC2C5"/>
<rect x="65.0988" y="478.907" width="32.0547" height="3.20547" transform="rotate(-90 65.0988 478.907)" fill="#BEC2C5"/>
<rect x="36.2601" y="478.907" width="32.0547" height="3.20547" transform="rotate(-90 36.2601 478.907)" fill="#BEC2C5"/>
<rect x="36.2719" y="446.706" width="32.0429" height="32.0547" fill="#BEC2C5" stroke="black" stroke-width="1.60273"/>
<rect x="36.2601" y="475.702" width="32.0429" height="3.20547" fill="#6F7376"/>
<rect x="36.2601" y="446.853" width="32.0429" height="3.20547" fill="#ECEDF1"/>
<rect x="65.0988" y="478.907" width="32.0547" height="3.20547" transform="rotate(-90 65.0988 478.907)" fill="#6F7376"/>
<rect x="36.2601" y="478.907" width="32.0547" height="3.20547" transform="rotate(-90 36.2601 478.907)" fill="#ECEDF1"/>
<rect x="36.2719" y="446.706" width="32.0429" height="32.0547" stroke="black" stroke-width="1.60273"/>
<path d="M443.347 459.528H438.54H433.734L438.54 464.337L443.347 459.528Z" fill="#BEC2C5" stroke="black" stroke-width="1.60273"/>
<rect x="422.519" y="475.702" width="32.0429" height="3.20547" fill="#BEC2C5"/>
<rect x="422.519" y="446.853" width="32.0429" height="3.20547" fill="#BEC2C5"/>
<rect x="451.357" y="478.907" width="32.0547" height="3.20547" transform="rotate(-90 451.357 478.907)" fill="#BEC2C5"/>
<rect x="422.519" y="478.907" width="32.0547" height="3.20547" transform="rotate(-90 422.519 478.907)" fill="#BEC2C5"/>
<rect x="422.531" y="446.706" width="32.0429" height="32.0547" fill="#BEC2C5" stroke="black" stroke-width="1.60273"/>
<path d="M440.143 467.54L440.143 462.733L440.143 457.927L444.951 462.733L440.143 467.54Z" fill="black" stroke="black" stroke-width="1.60273"/>
<rect x="422.519" y="475.702" width="32.0429" height="3.20547" fill="#6F7376"/>
<rect x="422.519" y="446.853" width="32.0429" height="3.20547" fill="#ECEDF1"/>
<rect x="451.357" y="478.907" width="32.0547" height="3.20547" transform="rotate(-90 451.357 478.907)" fill="#6F7376"/>
<rect x="422.519" y="478.907" width="32.0547" height="3.20547" transform="rotate(-90 422.519 478.907)" fill="#ECEDF1"/>
<rect x="422.531" y="446.706" width="32.0429" height="32.0547" stroke="black" stroke-width="1.60273"/>
<rect width="3.20547" height="8.01366" transform="matrix(-2.87868e-08 -1 -1 2.87868e-08 440.143 464.336)" fill="black" stroke="black" stroke-width="1.60273"/>
<rect x="36.2601" y="478.761" width="418.313" height="3.20547" fill="#B6B6B6"/>
<rect x="36.2601" y="478.761" width="418.313" height="3.20547" stroke="black" stroke-width="1.60273"/>
<path d="M476.909 459.528H472.125H467.34L472.125 464.337L476.909 459.528Z" fill="#BEC2C5" stroke="black" stroke-width="1.60273"/>
<rect x="456.176" y="475.702" width="31.8972" height="3.20547" fill="#BEC2C5"/>
<rect x="456.176" y="446.853" width="31.8972" height="3.20547" fill="#BEC2C5"/>
<rect x="484.884" y="478.907" width="32.0547" height="3.1909" transform="rotate(-90 484.884 478.907)" fill="#BEC2C5"/>
<rect x="456.176" y="478.907" width="32.0547" height="3.1909" transform="rotate(-90 456.176 478.907)" fill="#BEC2C5"/>
<rect x="456.188" y="446.706" width="31.8972" height="32.0547" fill="#BEC2C5" stroke="black" stroke-width="1.60273"/>
<path fill-rule="evenodd" clip-rule="evenodd" d="M491.436 446.706L491.436 481.966L454.573 481.966L454.573 478.76L488.085 478.76L488.085 446.706L491.436 446.706Z" fill="#B6B6B6"/>
<path d="M491.436 481.966L492.238 481.966L492.238 482.767L491.436 482.767L491.436 481.966ZM491.436 446.706L491.436 445.904L492.238 445.904L492.238 446.706L491.436 446.706ZM454.573 481.966L454.573 482.767L453.772 482.767L453.772 481.966L454.573 481.966ZM454.573 478.76L453.772 478.76L453.772 477.959L454.573 477.959L454.573 478.76ZM488.085 478.76L488.886 478.76L488.886 479.562L488.085 479.562L488.085 478.76ZM488.085 446.706L487.284 446.706L487.284 445.904L488.085 445.904L488.085 446.706ZM490.635 481.966L490.635 446.706L492.238 446.706L492.238 481.966L490.635 481.966ZM454.573 481.164L491.436 481.164L491.436 482.767L454.573 482.767L454.573 481.164ZM455.375 478.76L455.375 481.966L453.772 481.966L453.772 478.76L455.375 478.76ZM454.573 477.959L488.085 477.959L488.085 479.562L454.573 479.562L454.573 477.959ZM487.284 478.76L487.284 446.706L488.886 446.706L488.886 478.76L487.284 478.76ZM491.436 447.507L488.085 447.507L488.085 445.904L491.436 445.904L491.436 447.507Z" fill="black"/>
<defs>
<clipPath id="clip0_1123_258">
<rect width="484.025" height="410.3" fill="white" transform="translate(4.20551 36.4072)"/>
</clipPath>
</defs>
</svg>
